<svg width="325" height="25" viewBox="0 0 325 25" fill="none" xmlns="http://www.w3.org/2000/svg">
<path d="M7.57511 7.86828H10.7292L7.57511 1.00162H11.7148L22.2284 24H18.1544L16.6759 20.7802H5.7681L4.28963 24H0.182774L7.57511 7.86828ZM14.9674 17.1005L11.222 8.95249L7.47655 17.1005H14.9674ZM25.9135 24V1.00162H29.8561V11.4495L38.2341 1.00162H42.8337L32.9444 13.3879L37.5112 13.2236L45.8235 24H41.0924L32.9444 13.3879L29.8561 17.2648V24H25.9135ZM49.8244 4.61565C50.0872 3.84904 50.4596 3.18099 50.9414 2.61151C51.4452 2.04202 52.0366 1.5711 52.7156 1.19875C53.3946 0.804491 54.1283 0.519749 54.9169 0.344523C55.7054 0.147394 56.5267 0.0488294 57.381 0.0488294C58.8923 0.0488294 60.3489 0.355474 61.7507 0.968765C63.1744 1.56015 64.4119 2.38152 65.4633 3.43288L62.8677 6.3241C62.1011 5.55749 61.2359 4.9661 60.2722 4.54994C59.3304 4.13378 58.3228 3.9257 57.2496 3.9257C56.7458 3.9257 56.2639 3.98046 55.8039 4.08997C55.344 4.17759 54.9278 4.34186 54.5555 4.5828C54.205 4.80183 53.9203 5.10847 53.7012 5.50273C53.4822 5.87509 53.3727 6.34601 53.3727 6.91549C53.3727 7.15642 53.4165 7.3645 53.5041 7.53973L49.8244 4.61565ZM53.6684 7.86828C53.975 8.35015 54.4897 8.77726 55.2126 9.14962C55.9573 9.52197 56.7896 9.89433 57.7095 10.2667C58.6514 10.639 59.6151 11.0442 60.6007 11.4823C61.5864 11.8985 62.4844 12.4241 63.2948 13.0593C64.1272 13.6726 64.8062 14.4064 65.3318 15.2606C65.8794 16.1148 66.1532 17.1552 66.1532 18.3818C66.1532 19.4989 65.9013 20.4736 65.3976 21.3059C64.8938 22.1163 64.2476 22.7953 63.4591 23.3429C62.6706 23.8905 61.7726 24.2957 60.765 24.5585C59.7794 24.8214 58.7937 24.9528 57.8081 24.9528C56.9539 24.9528 56.0996 24.8761 55.2454 24.7228C54.4131 24.5695 53.6027 24.3285 52.8142 24C52.0475 23.6715 51.3247 23.2553 50.6457 22.7515C49.9667 22.2477 49.3644 21.6454 48.8387 20.9445L51.8942 18.5461C52.617 19.5098 53.5151 20.1779 54.5883 20.5502C55.6835 20.9007 56.8005 21.0759 57.9395 21.0759C58.3776 21.0759 58.8485 21.0321 59.3523 20.9445C59.856 20.8569 60.327 20.7036 60.765 20.4845C61.2031 20.2655 61.5645 19.9808 61.8492 19.6303C62.134 19.258 62.2763 18.798 62.2763 18.2504C62.2763 17.5495 61.9916 16.9581 61.4221 16.4762C60.8526 15.9725 60.1298 15.5235 59.2537 15.1292C58.3776 14.713 57.4138 14.3078 56.3625 13.9136C55.333 13.4974 54.3474 13.0265 53.4055 12.5008C52.4637 11.9532 51.6423 11.318 50.9414 10.5952C50.2405 9.85052 49.7915 8.94154 49.5944 7.86828H53.6684ZM70.4793 1.00162H74.4218V10.6609H85.3954V1.00162H89.3379V24H85.3954V14.3407H74.4218V24H70.4793V17.5605L74.4218 14.3407H70.4793V1.00162ZM112.362 24H108.419V7.86828L112.362 4.68136V24ZM100.961 4.68136V1.00162H119.885V4.68136H100.961ZM123.58 1.00162H138.463V4.68136H127.522V10.6609H136.097V14.3407H127.522V20.3203H138.463V24H123.58V7.86828L127.522 4.68136H123.58V1.00162ZM159.62 22.1601C158.678 22.9267 157.671 23.5072 156.598 23.9014C155.546 24.2957 154.265 24.4928 152.754 24.4928C151.089 24.4928 149.6 24.2519 148.285 23.77C146.971 23.2662 145.832 22.5982 144.869 21.7659C143.905 20.9116 143.116 19.937 142.503 18.8418C141.89 17.7247 141.452 16.5529 141.189 15.3263C140.926 14.0778 140.838 12.8184 140.926 11.548C141.014 10.2776 141.276 9.05105 141.714 7.86828H146.314C145.81 8.65679 145.449 9.52197 145.23 10.4638C145.033 11.3837 144.967 12.3146 145.033 13.2565C145.12 14.1983 145.339 15.1182 145.69 16.0163C146.062 16.8924 146.566 17.67 147.201 18.349C147.858 19.028 148.647 19.5755 149.567 19.9917C150.509 20.386 151.582 20.5831 152.787 20.5831C153.4 20.5831 153.947 20.5393 154.429 20.4517C154.911 20.3422 155.338 20.2107 155.711 20.0574C156.083 19.8822 156.401 19.707 156.663 19.5317C156.926 19.3565 157.145 19.1813 157.32 19.0061L159.62 22.1601ZM143.62 4.51709C144.606 3.31241 145.854 2.34867 147.365 1.62586C148.899 0.881151 150.695 0.508797 152.754 0.508797C153.98 0.508797 155.185 0.716877 156.368 1.13304C157.55 1.5273 158.635 2.09678 159.62 2.84149L157.32 6.06126C156.839 5.6232 156.203 5.23989 155.415 4.91134C154.648 4.5828 153.772 4.41852 152.787 4.41852C151.319 4.41852 150.06 4.71422 149.008 5.3056C147.957 5.87509 147.114 6.63075 146.478 7.57259L143.62 4.51709ZM164.295 1.00162H168.238V10.6609H179.211V1.00162H183.154V24H179.211V14.3407H168.238V24H164.295V17.5605L168.238 14.3407H164.295V1.00162ZM188.134 1.00162H189.481L202.952 15.4906V1.00162H206.894V24H205.58L192.077 9.44531V24H188.134V8.68965H191.387L188.134 5.20704V1.00162ZM223.212 0.475943C224.679 0.475943 226.125 0.72783 227.549 1.2316C228.972 1.73538 230.232 2.49104 231.327 3.49859C232.444 4.48423 233.342 5.73271 234.021 7.24404C234.7 8.75536 235.04 10.5076 235.04 12.5008C235.04 14.5159 234.7 16.2791 234.021 17.7904C233.342 19.2799 232.444 20.5283 231.327 21.5359C230.232 22.5215 228.972 23.2662 227.549 23.77C226.125 24.2738 224.679 24.5257 223.212 24.5257C221.722 24.5257 220.266 24.2738 218.842 23.77C217.418 23.2662 216.148 22.5215 215.031 21.5359C213.936 20.5283 213.049 19.2799 212.37 17.7904C211.691 16.2791 211.351 14.5159 211.351 12.5008C211.351 10.7924 211.603 9.24818 212.107 7.86828H216.509C216.093 8.48157 215.765 9.17152 215.524 9.93813C215.305 10.7047 215.195 11.559 215.195 12.5008C215.195 13.8588 215.425 15.0416 215.885 16.0491C216.345 17.0348 216.948 17.8671 217.692 18.5461C218.459 19.2251 219.313 19.7289 220.255 20.0574C221.219 20.386 222.204 20.5502 223.212 20.5502C224.198 20.5502 225.172 20.386 226.136 20.0574C227.1 19.7289 227.954 19.2251 228.699 18.5461C229.443 17.8671 230.046 17.0348 230.506 16.0491C230.966 15.0416 231.196 13.8588 231.196 12.5008C231.196 11.1647 230.966 9.99289 230.506 8.98534C230.046 7.97779 229.443 7.13452 228.699 6.45552C227.954 5.77652 227.1 5.27275 226.136 4.9442C225.172 4.61565 224.198 4.45138 223.212 4.45138C221.985 4.45138 220.803 4.70326 219.664 5.20704C218.525 5.68891 217.572 6.42267 216.805 7.40831L214.078 4.51709C215.217 3.15909 216.586 2.15154 218.185 1.49444C219.806 0.815442 221.482 0.475943 223.212 0.475943ZM239.502 20.3203V1.00162H243.445V16.8048L239.502 20.3203ZM239.502 24V20.3203H254.385V24H239.502ZM267.328 0.475943C268.796 0.475943 270.242 0.72783 271.665 1.2316C273.089 1.73538 274.348 2.49104 275.444 3.49859C276.561 4.48423 277.459 5.73271 278.138 7.24404C278.817 8.75536 279.156 10.5076 279.156 12.5008C279.156 14.5159 278.817 16.2791 278.138 17.7904C277.459 19.2799 276.561 20.5283 275.444 21.5359C274.348 22.5215 273.089 23.2662 271.665 23.77C270.242 24.2738 268.796 24.5257 267.328 24.5257C265.839 24.5257 264.382 24.2738 262.959 23.77C261.535 23.2662 260.265 22.5215 259.148 21.5359C258.052 20.5283 257.165 19.2799 256.486 17.7904C255.807 16.2791 255.468 14.5159 255.468 12.5008C255.468 10.7924 255.72 9.24818 256.224 7.86828H260.626C260.21 8.48157 259.881 9.17152 259.64 9.93813C259.421 10.7047 259.312 11.559 259.312 12.5008C259.312 13.8588 259.542 15.0416 260.002 16.0491C260.462 17.0348 261.064 17.8671 261.809 18.5461C262.575 19.2251 263.43 19.7289 264.372 20.0574C265.335 20.386 266.321 20.5502 267.328 20.5502C268.314 20.5502 269.289 20.386 270.253 20.0574C271.216 19.7289 272.07 19.2251 272.815 18.5461C273.56 17.8671 274.162 17.0348 274.622 16.0491C275.082 15.0416 275.312 13.8588 275.312 12.5008C275.312 11.1647 275.082 9.99289 274.622 8.98534C274.162 7.97779 273.56 7.13452 272.815 6.45552C272.07 5.77652 271.216 5.27275 270.253 4.9442C269.289 4.61565 268.314 4.45138 267.328 4.45138C266.102 4.45138 264.919 4.70326 263.78 5.20704C262.641 5.68891 261.688 6.42267 260.922 7.40831L258.195 4.51709C259.334 3.15909 260.703 2.15154 262.302 1.49444C263.922 0.815442 265.598 0.475943 267.328 0.475943ZM302.068 21.733C301.104 22.4996 299.932 23.1567 298.552 23.7043C297.172 24.23 295.727 24.4928 294.216 24.4928C292.244 24.4928 290.514 24.1533 289.024 23.4743C287.535 22.7734 286.298 21.8644 285.312 20.7474C284.326 19.6303 283.582 18.3599 283.078 16.9362C282.596 15.4906 282.355 14.0121 282.355 12.5008C282.355 11.7123 282.421 10.9347 282.552 10.1681C282.683 9.3796 282.892 8.61299 283.176 7.86828H287.776C287.272 8.65679 286.911 9.52197 286.692 10.4638C286.495 11.3837 286.429 12.3146 286.495 13.2565C286.582 14.1983 286.801 15.1182 287.152 16.0163C287.524 16.8924 288.028 17.67 288.663 18.349C289.32 19.028 290.109 19.5755 291.029 19.9917C291.97 20.386 293.044 20.5831 294.248 20.5831C295.168 20.5831 295.935 20.4845 296.548 20.2874C297.162 20.0684 297.676 19.8274 298.092 19.5646V15.1292H292.704V11.4495H302.068V21.733ZM285.082 4.51709C286.068 3.31241 287.316 2.34867 288.827 1.62586C290.361 0.881151 292.157 0.508797 294.216 0.508797C295.442 0.508797 296.647 0.716877 297.83 1.13304C299.012 1.5273 300.097 2.09678 301.082 2.84149L298.782 6.06126C298.3 5.6232 297.665 5.23989 296.877 4.91134C296.11 4.5828 295.234 4.41852 294.248 4.41852C292.781 4.41852 291.521 4.71422 290.47 5.3056C289.419 5.87509 288.575 6.63075 287.94 7.57259L285.082 4.51709ZM309.644 1.00162L314.966 10.7924L320.289 1.00162H324.527L316.937 14.8664V24H312.995V14.275H313.061L314.736 11.2195L310.925 11.0881L305.405 1.00162H309.644Z" fill="white"/>
</svg>
