<svg width="198" height="45" viewBox="0 0 198 45" fill="none" xmlns="http://www.w3.org/2000/svg">
<path d="M55.742 21.75L60.578 7.71H62.4792L67.3152 21.75H65.8235L61.2312 8.5095H61.7967L57.2337 21.75H55.742ZM57.8967 18.3472V17.0017H65.1507V18.3472H57.8967ZM76.1933 21.75V16.3778C76.1933 15.7927 76.1381 15.2565 76.0276 14.769C75.9171 14.275 75.7383 13.846 75.4913 13.482C75.2508 13.1115 74.9356 12.8255 74.5456 12.624C74.1621 12.4225 73.6941 12.3217 73.1416 12.3217C72.6346 12.3217 72.1861 12.4095 71.7961 12.585C71.4126 12.7605 71.0876 13.014 70.8211 13.3455C70.5611 13.6705 70.3628 14.067 70.2263 14.535C70.0898 15.003 70.0216 15.536 70.0216 16.134L69.0076 15.9097C69.0076 14.8307 69.1961 13.924 69.5731 13.1895C69.9501 12.455 70.4701 11.8992 71.1331 11.5222C71.7961 11.1452 72.5566 10.9568 73.4146 10.9568C74.0451 10.9568 74.5943 11.0542 75.0623 11.2492C75.5368 11.4442 75.9366 11.7075 76.2616 12.039C76.5931 12.3705 76.8596 12.7507 77.0611 13.1797C77.2626 13.6022 77.4088 14.054 77.4998 14.535C77.5908 15.0095 77.6363 15.484 77.6363 15.9585V21.75H76.1933ZM68.5786 21.75V11.22H69.8753V13.8135H70.0216V21.75H68.5786ZM85.412 21.75C84.8205 21.8735 84.2355 21.9223 83.657 21.8963C83.085 21.8703 82.5715 21.7467 82.1165 21.5257C81.668 21.3047 81.3267 20.9602 81.0927 20.4922C80.9042 20.1022 80.8002 19.709 80.7807 19.3125C80.7677 18.9095 80.7612 18.4512 80.7612 17.9377V8.295H82.1847V17.8792C82.1847 18.3212 82.188 18.6917 82.1945 18.9907C82.2075 19.2832 82.2757 19.5432 82.3992 19.7707C82.6332 20.2062 83.0037 20.4662 83.5107 20.5507C84.0242 20.6352 84.658 20.6157 85.412 20.4922V21.75ZM78.509 12.4485V11.22H85.412V12.4485H78.509ZM91.0155 22.0425C89.969 22.0425 89.0752 21.8053 88.3342 21.3307C87.5932 20.8562 87.0245 20.1997 86.628 19.3612C86.2315 18.5227 86.0332 17.5607 86.0332 16.4752C86.0332 15.3702 86.2347 14.4017 86.6377 13.5697C87.0407 12.7377 87.6127 12.091 88.3537 11.6295C89.1012 11.1615 89.9885 10.9275 91.0155 10.9275C92.0685 10.9275 92.9655 11.1647 93.7065 11.6392C94.454 12.1072 95.0227 12.7605 95.4127 13.599C95.8092 14.431 96.0075 15.3897 96.0075 16.4752C96.0075 17.5802 95.8092 18.552 95.4127 19.3905C95.0162 20.2225 94.4442 20.8725 93.6967 21.3405C92.9492 21.8085 92.0555 22.0425 91.0155 22.0425ZM91.0155 20.6677C92.1855 20.6677 93.0565 20.281 93.6285 19.5075C94.2005 18.7275 94.4865 17.7167 94.4865 16.4752C94.4865 15.2012 94.1972 14.1872 93.6187 13.4332C93.0467 12.6792 92.179 12.3022 91.0155 12.3022C90.229 12.3022 89.579 12.481 89.0655 12.8385C88.5585 13.1895 88.1782 13.6802 87.9247 14.3107C87.6777 14.9347 87.5542 15.6562 87.5542 16.4752C87.5542 17.7427 87.8467 18.76 88.4317 19.527C89.0167 20.2875 89.878 20.6677 91.0155 20.6677ZM105.276 21.75V16.3778C105.276 15.7927 105.221 15.2565 105.11 14.769C105 14.275 104.821 13.846 104.574 13.482C104.333 13.1115 104.018 12.8255 103.628 12.624C103.245 12.4225 102.777 12.3217 102.224 12.3217C101.717 12.3217 101.269 12.4095 100.879 12.585C100.495 12.7605 100.17 13.014 99.9035 13.3455C99.6435 13.6705 99.4453 14.067 99.3088 14.535C99.1723 15.003 99.104 15.536 99.104 16.134L98.09 15.9097C98.09 14.8307 98.2785 13.924 98.6555 13.1895C99.0325 12.455 99.5525 11.8992 100.216 11.5222C100.879 11.1452 101.639 10.9568 102.497 10.9568C103.128 10.9568 103.677 11.0542 104.145 11.2492C104.619 11.4442 105.019 11.7075 105.344 12.039C105.676 12.3705 105.942 12.7507 106.144 13.1797C106.345 13.6022 106.491 14.054 106.582 14.535C106.673 15.0095 106.719 15.484 106.719 15.9585V21.75H105.276ZM97.661 21.75V11.22H98.9578V13.8135H99.104V21.75H97.661ZM116.263 22.0425C115.281 22.0425 114.443 21.7988 113.747 21.3112C113.052 20.8172 112.519 20.151 112.148 19.3125C111.778 18.474 111.593 17.5282 111.593 16.4752C111.593 15.4287 111.775 14.4862 112.139 13.6477C112.509 12.8092 113.039 12.1462 113.728 11.6587C114.417 11.1712 115.242 10.9275 116.204 10.9275C117.192 10.9275 118.024 11.168 118.7 11.649C119.376 12.13 119.887 12.7897 120.231 13.6282C120.582 14.4602 120.758 15.4092 120.758 16.4752C120.758 17.5217 120.585 18.4675 120.241 19.3125C119.896 20.151 119.389 20.8172 118.72 21.3112C118.05 21.7988 117.231 22.0425 116.263 22.0425ZM116.409 20.7067C117.157 20.7067 117.774 20.5247 118.262 20.1607C118.749 19.7967 119.113 19.2962 119.354 18.6592C119.594 18.0157 119.714 17.2877 119.714 16.4752C119.714 15.6497 119.594 14.9217 119.354 14.2912C119.113 13.6542 118.749 13.157 118.262 12.7995C117.781 12.442 117.173 12.2632 116.438 12.2632C115.684 12.2632 115.06 12.4485 114.566 12.819C114.072 13.1895 113.705 13.6932 113.465 14.3302C113.231 14.9672 113.114 15.6822 113.114 16.4752C113.114 17.2747 113.234 17.9962 113.474 18.6397C113.721 19.2767 114.089 19.7805 114.576 20.151C115.064 20.5215 115.675 20.7067 116.409 20.7067ZM119.714 21.75V13.8232H119.558V7.71H121.001V21.75H119.714ZM127.705 22.0425C126.678 22.0425 125.788 21.815 125.034 21.36C124.286 20.905 123.704 20.2647 123.288 19.4392C122.872 18.6137 122.664 17.6452 122.664 16.5337C122.664 15.3832 122.869 14.3887 123.279 13.5502C123.688 12.7117 124.263 12.065 125.004 11.61C125.752 11.155 126.633 10.9275 127.647 10.9275C128.687 10.9275 129.574 11.168 130.308 11.649C131.043 12.1235 131.599 12.806 131.976 13.6965C132.353 14.587 132.525 15.6497 132.492 16.8847H131.03V16.3778C131.004 15.0127 130.708 13.9825 130.143 13.287C129.584 12.5915 128.765 12.2437 127.686 12.2437C126.555 12.2437 125.687 12.611 125.082 13.3455C124.484 14.08 124.185 15.1265 124.185 16.485C124.185 17.811 124.484 18.8412 125.082 19.5757C125.687 20.3037 126.542 20.6677 127.647 20.6677C128.401 20.6677 129.057 20.4955 129.616 20.151C130.182 19.8 130.627 19.2962 130.952 18.6397L132.288 19.1565C131.872 20.073 131.257 20.7847 130.445 21.2917C129.639 21.7923 128.726 22.0425 127.705 22.0425ZM123.678 16.8847V15.6855H131.722V16.8847H123.678ZM142.46 22.0425C141.478 22.0425 140.594 21.88 139.808 21.555C139.028 21.2235 138.381 20.7555 137.868 20.151C137.361 19.5465 137.029 18.8282 136.873 17.9962L138.336 17.7525C138.57 18.6625 139.064 19.3775 139.818 19.8975C140.572 20.411 141.472 20.6677 142.518 20.6677C143.207 20.6677 143.825 20.5605 144.371 20.346C144.917 20.125 145.346 19.813 145.658 19.41C145.97 19.007 146.126 18.5292 146.126 17.9767C146.126 17.6127 146.061 17.304 145.931 17.0505C145.801 16.7905 145.629 16.576 145.414 16.407C145.2 16.238 144.966 16.0982 144.712 15.9877C144.459 15.8707 144.212 15.7765 143.971 15.705L140.412 14.6422C139.983 14.5187 139.587 14.3627 139.223 14.1742C138.859 13.9792 138.54 13.7485 138.267 13.482C138.001 13.209 137.793 12.8905 137.643 12.5265C137.494 12.1625 137.419 11.7465 137.419 11.2785C137.419 10.4855 137.627 9.79975 138.043 9.22125C138.459 8.64275 139.028 8.1975 139.749 7.8855C140.471 7.5735 141.293 7.42075 142.216 7.42725C143.152 7.42725 143.987 7.593 144.722 7.9245C145.463 8.256 146.074 8.7305 146.555 9.348C147.036 9.959 147.354 10.6837 147.51 11.5222L146.009 11.7952C145.911 11.1842 145.687 10.6545 145.336 10.206C144.985 9.7575 144.537 9.413 143.991 9.1725C143.451 8.9255 142.856 8.79875 142.206 8.79225C141.576 8.79225 141.014 8.8995 140.52 9.114C140.032 9.322 139.645 9.608 139.359 9.972C139.073 10.336 138.93 10.752 138.93 11.22C138.93 11.6945 139.06 12.0747 139.32 12.3607C139.587 12.6467 139.912 12.871 140.295 13.0335C140.685 13.196 141.062 13.3292 141.426 13.4332L144.176 14.2425C144.462 14.3205 144.797 14.4342 145.18 14.5837C145.57 14.7267 145.947 14.9347 146.311 15.2077C146.682 15.4742 146.987 15.8252 147.228 16.2607C147.468 16.6962 147.588 17.2487 147.588 17.9182C147.588 18.5682 147.458 19.15 147.198 19.6635C146.945 20.177 146.584 20.6092 146.116 20.9602C145.655 21.3112 145.112 21.5777 144.488 21.7598C143.87 21.9483 143.194 22.0425 142.46 22.0425ZM151.356 21.75L148.138 11.2102L149.572 11.22L152.068 19.4002L154.573 11.22H155.88L158.386 19.4002L160.901 11.22H162.325L159.107 21.75H157.859L155.227 13.365L152.604 21.75H151.356ZM166.016 22.0425C165.223 22.0425 164.557 21.8995 164.017 21.6135C163.484 21.3275 163.085 20.9472 162.818 20.4727C162.552 19.9982 162.418 19.4815 162.418 18.9225C162.418 18.3505 162.532 17.863 162.76 17.46C162.994 17.0505 163.309 16.7157 163.705 16.4557C164.108 16.1957 164.573 15.9975 165.1 15.861C165.633 15.731 166.221 15.6172 166.864 15.5197C167.514 15.4157 168.148 15.328 168.766 15.2565C169.39 15.1785 169.936 15.1037 170.404 15.0322L169.897 15.3442C169.916 14.3042 169.715 13.534 169.292 13.0335C168.87 12.533 168.135 12.2827 167.089 12.2827C166.367 12.2827 165.756 12.4452 165.256 12.7702C164.762 13.0952 164.414 13.6087 164.212 14.3107L162.818 13.9012C163.059 12.9587 163.543 12.2275 164.271 11.7075C164.999 11.1875 165.945 10.9275 167.108 10.9275C168.07 10.9275 168.886 11.1095 169.555 11.4735C170.231 11.831 170.709 12.351 170.989 13.0335C171.119 13.339 171.203 13.6802 171.242 14.0572C171.281 14.4342 171.301 14.8177 171.301 15.2077V21.75H170.023V19.1077L170.394 19.2637C170.036 20.1672 169.481 20.8562 168.727 21.3307C167.973 21.8053 167.069 22.0425 166.016 22.0425ZM166.182 20.8042C166.851 20.8042 167.436 20.684 167.937 20.4435C168.437 20.203 168.84 19.8747 169.146 19.4587C169.451 19.0362 169.65 18.5617 169.741 18.0352C169.819 17.6972 169.861 17.3267 169.867 16.9237C169.874 16.5142 169.877 16.2087 169.877 16.0072L170.423 16.29C169.936 16.355 169.406 16.42 168.834 16.485C168.268 16.55 167.709 16.6247 167.157 16.7092C166.611 16.7937 166.117 16.8945 165.675 17.0115C165.376 17.096 165.087 17.2162 164.807 17.3722C164.528 17.5217 164.297 17.7232 164.115 17.9767C163.939 18.2302 163.852 18.5455 163.852 18.9225C163.852 19.228 163.926 19.5237 164.076 19.8097C164.232 20.0957 164.479 20.333 164.817 20.5215C165.161 20.71 165.616 20.8042 166.182 20.8042ZM173.351 21.75V11.22H174.638V13.755L174.385 13.4235C174.502 13.1115 174.655 12.8255 174.843 12.5655C175.032 12.299 175.236 12.0812 175.457 11.9122C175.73 11.6717 176.049 11.4897 176.413 11.3662C176.777 11.2362 177.144 11.1615 177.515 11.142C177.885 11.116 178.223 11.142 178.529 11.22V12.5655C178.145 12.468 177.726 12.4452 177.271 12.4972C176.816 12.5492 176.397 12.7312 176.013 13.0432C175.662 13.3162 175.399 13.6445 175.223 14.028C175.048 14.405 174.931 14.808 174.872 15.237C174.814 15.6595 174.785 16.0787 174.785 16.4947V21.75H173.351ZM183.786 22.0425C182.804 22.0425 181.966 21.7988 181.27 21.3112C180.575 20.8172 180.042 20.151 179.671 19.3125C179.301 18.474 179.115 17.5282 179.115 16.4752C179.115 15.4287 179.297 14.4862 179.661 13.6477C180.032 12.8092 180.562 12.1462 181.251 11.6587C181.94 11.1712 182.765 10.9275 183.727 10.9275C184.715 10.9275 185.547 11.168 186.223 11.649C186.899 12.13 187.409 12.7897 187.754 13.6282C188.105 14.4602 188.28 15.4092 188.28 16.4752C188.28 17.5217 188.108 18.4675 187.764 19.3125C187.419 20.151 186.912 20.8172 186.243 21.3112C185.573 21.7988 184.754 22.0425 183.786 22.0425ZM183.932 20.7067C184.679 20.7067 185.297 20.5247 185.784 20.1607C186.272 19.7967 186.636 19.2962 186.876 18.6592C187.117 18.0157 187.237 17.2877 187.237 16.4752C187.237 15.6497 187.117 14.9217 186.876 14.2912C186.636 13.6542 186.272 13.157 185.784 12.7995C185.303 12.442 184.696 12.2632 183.961 12.2632C183.207 12.2632 182.583 12.4485 182.089 12.819C181.595 13.1895 181.228 13.6932 180.987 14.3302C180.753 14.9672 180.636 15.6822 180.636 16.4752C180.636 17.2747 180.757 17.9962 180.997 18.6397C181.244 19.2767 181.611 19.7805 182.099 20.151C182.586 20.5215 183.197 20.7067 183.932 20.7067ZM187.237 21.75V13.8232H187.081V7.71H188.524V21.75H187.237ZM196.505 21.75C195.913 21.8735 195.328 21.9223 194.75 21.8963C194.178 21.8703 193.664 21.7467 193.209 21.5257C192.761 21.3047 192.42 20.9602 192.186 20.4922C191.997 20.1022 191.893 19.709 191.874 19.3125C191.861 18.9095 191.854 18.4512 191.854 17.9377V8.295H193.278V17.8792C193.278 18.3212 193.281 18.6917 193.287 18.9907C193.3 19.2832 193.369 19.5432 193.492 19.7707C193.726 20.2062 194.097 20.4662 194.604 20.5507C195.117 20.6352 195.751 20.6157 196.505 20.4922V21.75ZM189.602 12.4485V11.22H196.505V12.4485H189.602Z" fill="black"/>
<path d="M0.25 22.5C0.25 10.0736 10.3236 0 22.75 0C35.1764 0 45.25 10.0736 45.25 22.5C45.25 34.9264 35.1764 45 22.75 45C10.3236 45 0.25 34.9264 0.25 22.5Z"/>
<path fill-rule="evenodd" clip-rule="evenodd" d="M58.917 28.8637C58.5451 28.6873 58.1137 28.6873 57.7417 28.8637C57.4843 28.9859 57.3016 29.217 57.1398 29.4783C56.9771 29.7409 56.7986 30.098 56.5763 30.5426L56.5763 30.5426L56.5676 30.56L56.3884 30.9184C56.236 31.2232 56.1916 31.3031 56.136 31.3614C56.0786 31.4215 56.0098 31.4695 55.9335 31.5026C55.8596 31.5346 55.7693 31.5486 55.4306 31.5863L55.2679 31.6043L55.2484 31.6065H55.2484C54.7143 31.6658 54.2877 31.7132 53.9647 31.7789C53.6462 31.8437 53.3493 31.9396 53.1415 32.1517C52.8442 32.455 52.7042 32.879 52.7625 33.2998C52.8032 33.5938 52.9846 33.8477 53.202 34.0894C53.4224 34.3344 53.737 34.6266 54.1307 34.9922L54.1451 35.0056L54.3168 35.165C54.6151 35.442 54.6916 35.5203 54.7344 35.6037C54.7787 35.6899 54.8022 35.7852 54.8032 35.882C54.8042 35.9756 54.7725 36.0825 54.6359 36.4718L54.6294 36.4902L54.6294 36.4903C54.4278 37.0648 54.2682 37.5198 54.1775 37.8737C54.0895 38.2176 54.0401 38.5552 54.1549 38.8476C54.3165 39.2591 54.6664 39.5674 55.0949 39.6759C55.3986 39.7528 55.7244 39.6632 56.0515 39.5342C56.3873 39.4018 56.8125 39.1892 57.3486 38.9211L57.3661 38.9123L57.783 38.7039C58.064 38.5634 58.1408 38.5288 58.2144 38.5149C58.2904 38.5007 58.3684 38.5007 58.4443 38.5149C58.518 38.5288 58.5947 38.5634 58.8758 38.7039L59.2926 38.9123L59.3102 38.9211C59.8463 39.1892 60.2715 39.4018 60.6072 39.5342C60.9343 39.6632 61.2602 39.7528 61.5638 39.6759C61.9923 39.5674 62.3423 39.2591 62.5038 38.8476C62.6186 38.5552 62.5693 38.2176 62.4812 37.8737C62.3906 37.5198 62.231 37.0648 62.0293 36.4902V36.4902L62.0229 36.4718C61.8863 36.0825 61.8546 35.9756 61.8555 35.882C61.8566 35.7852 61.8801 35.6899 61.9244 35.6037C61.9672 35.5203 62.0437 35.442 62.342 35.165L62.5137 35.0056L62.5281 34.9921C62.9218 34.6265 63.2364 34.3344 63.4568 34.0894C63.6741 33.8477 63.8555 33.5938 63.8963 33.2998C63.9546 32.879 63.8146 32.455 63.5172 32.1517C63.3094 31.9396 63.0126 31.8437 62.694 31.7789C62.371 31.7132 61.9444 31.6658 61.4104 31.6065L61.3908 31.6043L61.2282 31.5863C60.8894 31.5486 60.7991 31.5346 60.7253 31.5026C60.649 31.4695 60.5802 31.4215 60.5228 31.3614C60.4672 31.3031 60.4228 31.2232 60.2704 30.9183L60.0912 30.56L60.0825 30.5426C59.8602 30.098 59.6817 29.7409 59.519 29.4783C59.3572 29.217 59.1745 28.9859 58.917 28.8637Z" fill="#FFC250"/>
<path fill-rule="evenodd" clip-rule="evenodd" d="M72.1468 28.8637C71.7748 28.6873 71.3434 28.6873 70.9715 28.8637C70.714 28.9859 70.5314 29.217 70.3695 29.4783C70.2068 29.7409 70.0283 30.098 69.806 30.5426L69.806 30.5426L69.7973 30.56L69.6181 30.9184C69.4657 31.2232 69.4214 31.3031 69.3657 31.3614C69.3083 31.4215 69.2395 31.4695 69.1633 31.5026C69.0894 31.5346 68.9991 31.5486 68.6603 31.5863L68.4976 31.6043L68.4781 31.6065H68.4781C67.9441 31.6658 67.5175 31.7132 67.1945 31.7789C66.8759 31.8437 66.5791 31.9396 66.3712 32.1517C66.0739 32.455 65.9339 32.879 65.9922 33.2998C66.033 33.5938 66.2144 33.8477 66.4317 34.0894C66.6521 34.3344 66.9667 34.6266 67.3605 34.9922L67.3748 35.0056L67.5466 35.165C67.8448 35.442 67.9213 35.5203 67.9642 35.6037C68.0084 35.6899 68.032 35.7852 68.033 35.882C68.034 35.9756 68.0022 36.0825 67.8656 36.4718L67.8591 36.4902L67.8591 36.4903C67.6575 37.0648 67.4979 37.5198 67.4073 37.8737C67.3192 38.2176 67.2699 38.5552 67.3847 38.8476C67.5462 39.2591 67.8962 39.5674 68.3247 39.6759C68.6283 39.7528 68.9542 39.6632 69.2813 39.5342C69.617 39.4018 70.0422 39.1892 70.5783 38.9211L70.5959 38.9123L71.0127 38.7039C71.2938 38.5634 71.3705 38.5288 71.4442 38.5149C71.5201 38.5007 71.5981 38.5007 71.6741 38.5149C71.7477 38.5288 71.8245 38.5634 72.1055 38.7039L72.5224 38.9123L72.54 38.9211C73.076 39.1892 73.5012 39.4018 73.837 39.5342C74.164 39.6632 74.4899 39.7528 74.7936 39.6759C75.2221 39.5674 75.5721 39.2591 75.7336 38.8476C75.8484 38.5552 75.799 38.2176 75.711 37.8737C75.6203 37.5198 75.4607 37.0648 75.2591 36.4902V36.4902L75.2527 36.4718C75.1161 36.0825 75.0843 35.9756 75.0852 35.882C75.0863 35.7852 75.1098 35.6899 75.1541 35.6037C75.1969 35.5203 75.2734 35.442 75.5717 35.165L75.7434 35.0056L75.7578 34.9921C76.1516 34.6265 76.4661 34.3344 76.6865 34.0894C76.9039 33.8477 77.0853 33.5938 77.126 33.2998C77.1843 32.879 77.0443 32.455 76.747 32.1517C76.5392 31.9396 76.2423 31.8437 75.9238 31.7789C75.6008 31.7132 75.1742 31.6658 74.6401 31.6065L74.6206 31.6043L74.458 31.5863C74.1192 31.5486 74.0289 31.5346 73.955 31.5026C73.8788 31.4695 73.8099 31.4215 73.7525 31.3614C73.6969 31.3031 73.6526 31.2232 73.5001 30.9183L73.3209 30.56L73.3122 30.5426C73.0899 30.098 72.9114 29.7409 72.7487 29.4783C72.5869 29.217 72.4043 28.9859 72.1468 28.8637Z" fill="#FFC250"/>
<path fill-rule="evenodd" clip-rule="evenodd" d="M85.3763 28.8637C85.0043 28.6873 84.5729 28.6873 84.201 28.8637C83.9435 28.9859 83.7609 29.217 83.599 29.4783C83.4363 29.7409 83.2578 30.098 83.0355 30.5426L83.0355 30.5426L83.0268 30.56L82.8476 30.9184C82.6952 31.2232 82.6509 31.3031 82.5952 31.3614C82.5378 31.4215 82.469 31.4695 82.3928 31.5026C82.3189 31.5346 82.2286 31.5486 81.8898 31.5863L81.7271 31.6043L81.7076 31.6065H81.7076C81.1736 31.6658 80.7469 31.7132 80.424 31.7789C80.1054 31.8437 79.8085 31.9396 79.6007 32.1517C79.3034 32.455 79.1634 32.879 79.2217 33.2998C79.2625 33.5938 79.4439 33.8477 79.6612 34.0894C79.8816 34.3344 80.1962 34.6266 80.5899 34.9922L80.6043 35.0056L80.776 35.165C81.0743 35.442 81.1508 35.5203 81.1936 35.6037C81.2379 35.6899 81.2614 35.7852 81.2625 35.882C81.2634 35.9756 81.2317 36.0825 81.0951 36.4718L81.0886 36.4902L81.0886 36.4903C80.887 37.0648 80.7274 37.5198 80.6368 37.8737C80.5487 38.2176 80.4994 38.5552 80.6142 38.8476C80.7757 39.2591 81.1256 39.5674 81.5541 39.6759C81.8578 39.7528 82.1837 39.6632 82.5108 39.5342C82.8465 39.4018 83.2717 39.1892 83.8078 38.9211L83.8254 38.9123L84.2422 38.7039C84.5233 38.5634 84.6 38.5288 84.6737 38.5149C84.7496 38.5007 84.8276 38.5007 84.9036 38.5149C84.9772 38.5288 85.054 38.5634 85.335 38.7039L85.7519 38.9123L85.7695 38.9211C86.3055 39.1892 86.7307 39.4018 87.0665 39.5342C87.3935 39.6632 87.7194 39.7528 88.0231 39.6759C88.4516 39.5674 88.8015 39.2591 88.9631 38.8476C89.0779 38.5552 89.0285 38.2176 88.9405 37.8737C88.8498 37.5198 88.6902 37.0648 88.4886 36.4902V36.4902L88.4821 36.4718C88.3456 36.0825 88.3138 35.9756 88.3147 35.882C88.3158 35.7852 88.3393 35.6899 88.3836 35.6037C88.4264 35.5203 88.5029 35.442 88.8012 35.165L88.9729 35.0056L88.9873 34.9921C89.3811 34.6265 89.6956 34.3344 89.916 34.0894C90.1334 33.8477 90.3148 33.5938 90.3555 33.2998C90.4138 32.879 90.2738 32.455 89.9765 32.1517C89.7687 31.9396 89.4718 31.8437 89.1533 31.7789C88.8303 31.7132 88.4037 31.6658 87.8696 31.6065L87.8501 31.6043L87.6875 31.5863C87.3487 31.5486 87.2583 31.5346 87.1845 31.5026C87.1082 31.4695 87.0394 31.4215 86.982 31.3614C86.9264 31.3031 86.882 31.2232 86.7296 30.9183L86.5504 30.56L86.5417 30.5426C86.3194 30.098 86.1409 29.7409 85.9782 29.4783C85.8164 29.217 85.6338 28.9859 85.3763 28.8637Z" fill="#FFC250"/>
<path fill-rule="evenodd" clip-rule="evenodd" d="M98.606 28.8637C98.2341 28.6873 97.8026 28.6873 97.4307 28.8637C97.1732 28.9859 96.9906 29.217 96.8288 29.4783C96.6661 29.7409 96.4876 30.098 96.2653 30.5426L96.2652 30.5426L96.2565 30.56L96.0774 30.9184C95.9249 31.2232 95.8806 31.3031 95.825 31.3614C95.7675 31.4215 95.6987 31.4695 95.6225 31.5026C95.5486 31.5346 95.4583 31.5486 95.1195 31.5863L94.9569 31.6043L94.9374 31.6065H94.9374C94.4033 31.6658 93.9767 31.7132 93.6537 31.7789C93.3352 31.8437 93.0383 31.9396 92.8305 32.1517C92.5332 32.455 92.3932 32.879 92.4515 33.2998C92.4922 33.5938 92.6736 33.8477 92.891 34.0894C93.1114 34.3344 93.4259 34.6266 93.8197 34.9922L93.8341 35.0056L94.0058 35.165C94.3041 35.442 94.3805 35.5203 94.4234 35.6037C94.4676 35.6899 94.4912 35.7852 94.4922 35.882C94.4932 35.9756 94.4614 36.0825 94.3248 36.4718L94.3184 36.4902L94.3184 36.4903C94.1168 37.0648 93.9571 37.5198 93.8665 37.8737C93.7784 38.2176 93.7291 38.5552 93.8439 38.8476C94.0054 39.2591 94.3554 39.5674 94.7839 39.6759C95.0875 39.7528 95.4134 39.6632 95.7405 39.5342C96.0763 39.4018 96.5015 39.1892 97.0376 38.9211L97.0551 38.9123L97.472 38.7039C97.753 38.5634 97.8298 38.5288 97.9034 38.5149C97.9794 38.5007 98.0573 38.5007 98.1333 38.5149C98.2069 38.5288 98.2837 38.5634 98.5647 38.7039L98.9816 38.9123L98.9992 38.9211C99.5353 39.1892 99.9604 39.4018 100.296 39.5342C100.623 39.6632 100.949 39.7528 101.253 39.6759C101.681 39.5674 102.031 39.2591 102.193 38.8476C102.308 38.5552 102.258 38.2176 102.17 37.8737C102.08 37.5198 101.92 37.0648 101.718 36.4902V36.4902L101.712 36.4718C101.575 36.0825 101.544 35.9756 101.544 35.882C101.546 35.7852 101.569 35.6899 101.613 35.6037C101.656 35.5203 101.733 35.442 102.031 35.165L102.203 35.0056L102.217 34.9921C102.611 34.6265 102.925 34.3344 103.146 34.0894C103.363 33.8477 103.545 33.5938 103.585 33.2998C103.644 32.879 103.504 32.455 103.206 32.1517C102.998 31.9396 102.702 31.8437 102.383 31.7789C102.06 31.7132 101.633 31.6658 101.099 31.6065L101.08 31.6043L100.917 31.5863C100.578 31.5486 100.488 31.5346 100.414 31.5026C100.338 31.4695 100.269 31.4215 100.212 31.3614C100.156 31.3031 100.112 31.2232 99.9593 30.9183L99.7802 30.56L99.7714 30.5426C99.5491 30.098 99.3707 29.7409 99.2079 29.4783C99.0461 29.217 98.8635 28.9859 98.606 28.8637Z" fill="#FFC250"/>
<path fill-rule="evenodd" clip-rule="evenodd" d="M111.836 28.8637C111.464 28.6873 111.032 28.6873 110.66 28.8637C110.403 28.9859 110.22 29.217 110.059 29.4783C109.896 29.7409 109.717 30.098 109.495 30.5426L109.495 30.5426L109.486 30.56L109.307 30.9184C109.155 31.2232 109.11 31.3031 109.055 31.3614C108.997 31.4215 108.928 31.4695 108.852 31.5026C108.778 31.5346 108.688 31.5486 108.349 31.5863L108.187 31.6043L108.167 31.6065H108.167C107.633 31.6658 107.206 31.7132 106.883 31.7789C106.565 31.8437 106.268 31.9396 106.06 32.1517C105.763 32.455 105.623 32.879 105.681 33.2998C105.722 33.5938 105.903 33.8477 106.121 34.0894C106.341 34.3344 106.656 34.6266 107.049 34.9922L107.064 35.0056L107.236 35.165C107.534 35.442 107.61 35.5203 107.653 35.6037C107.697 35.6899 107.721 35.7852 107.722 35.882C107.723 35.9756 107.691 36.0825 107.555 36.4718L107.548 36.4902L107.548 36.4903C107.347 37.0648 107.187 37.5198 107.096 37.8737C107.008 38.2176 106.959 38.5552 107.074 38.8476C107.235 39.2591 107.585 39.5674 108.014 39.6759C108.317 39.7528 108.643 39.6632 108.97 39.5342C109.306 39.4018 109.731 39.1892 110.267 38.9211L110.285 38.9123L110.702 38.7039C110.983 38.5634 111.059 38.5288 111.133 38.5149C111.209 38.5007 111.287 38.5007 111.363 38.5149C111.437 38.5288 111.513 38.5634 111.794 38.7039L112.211 38.9123L112.229 38.9211C112.765 39.1892 113.19 39.4018 113.526 39.5342C113.853 39.6632 114.179 39.7528 114.483 39.6759C114.911 39.5674 115.261 39.2591 115.423 38.8476C115.537 38.5552 115.488 38.2176 115.4 37.8737C115.309 37.5198 115.15 37.0648 114.948 36.4902V36.4902L114.942 36.4718C114.805 36.0825 114.773 35.9756 114.774 35.882C114.775 35.7852 114.799 35.6899 114.843 35.6037C114.886 35.5203 114.962 35.442 115.261 35.165L115.432 35.0056L115.447 34.9921C115.841 34.6265 116.155 34.3344 116.375 34.0894C116.593 33.8477 116.774 33.5938 116.815 33.2998C116.873 32.879 116.733 32.455 116.436 32.1517C116.228 31.9396 115.931 31.8437 115.613 31.7789C115.29 31.7132 114.863 31.6658 114.329 31.6065L114.31 31.6043L114.147 31.5863C113.808 31.5486 113.718 31.5346 113.644 31.5026C113.568 31.4695 113.499 31.4215 113.442 31.3614C113.386 31.3031 113.342 31.2232 113.189 30.9183L113.01 30.56L113.001 30.5426C112.779 30.098 112.6 29.7409 112.438 29.4783C112.276 29.217 112.093 28.9859 111.836 28.8637Z" fill="#FFC250"/>
</svg>
