<svg width="182" height="45" viewBox="0 0 182 45" fill="none" xmlns="http://www.w3.org/2000/svg">
<path fill-rule="evenodd" clip-rule="evenodd" d="M59.5552 28.4857C59.1749 28.3133 58.7338 28.3133 58.3536 28.4857C58.0903 28.605 57.9036 28.8309 57.7382 29.0862C57.5718 29.3429 57.3893 29.6918 57.162 30.1263L57.162 30.1263L57.1531 30.1433L56.9699 30.4935C56.8141 30.7914 56.7688 30.8695 56.7119 30.9264C56.6532 30.9851 56.5828 31.032 56.5049 31.0644C56.4293 31.0957 56.337 31.1094 55.9906 31.1462L55.8243 31.1638L55.8044 31.1659H55.8044C55.2584 31.2239 54.8222 31.2702 54.492 31.3344C54.1663 31.3978 53.8628 31.4915 53.6503 31.6987C53.3463 31.9951 53.2032 32.4095 53.2628 32.8206C53.3044 33.108 53.4899 33.356 53.7121 33.5922C53.9375 33.8317 54.2591 34.1172 54.6617 34.4745L54.6764 34.4876L54.8519 34.6433C55.1569 34.914 55.2351 34.9906 55.2789 35.0721C55.3241 35.1563 55.3482 35.2494 55.3492 35.344C55.3503 35.4355 55.3178 35.54 55.1781 35.9204L55.1715 35.9384L55.1715 35.9385C54.9654 36.4998 54.8022 36.9445 54.7095 37.2904C54.6195 37.6264 54.5691 37.9564 54.6864 38.2421C54.8516 38.6442 55.2094 38.9455 55.6475 39.0515C55.9579 39.1266 56.2911 39.0391 56.6255 38.913C56.9688 38.7836 57.4035 38.5758 57.9516 38.3139L57.9696 38.3053L58.3957 38.1016C58.6831 37.9643 58.7616 37.9305 58.8369 37.917C58.9145 37.9031 58.9943 37.9031 59.0719 37.917C59.1472 37.9305 59.2257 37.9643 59.513 38.1016L59.9392 38.3053L59.9572 38.3139C60.5053 38.5758 60.94 38.7836 61.2833 38.913C61.6177 39.0391 61.9508 39.1266 62.2613 39.0515C62.6994 38.9455 63.0572 38.6442 63.2224 38.2421C63.3397 37.9564 63.2892 37.6264 63.1993 37.2904C63.1066 36.9445 62.9434 36.4998 62.7372 35.9384V35.9384L62.7307 35.9204C62.591 35.54 62.5585 35.4355 62.5595 35.344C62.5606 35.2494 62.5846 35.1563 62.6299 35.0721C62.6737 34.9906 62.7519 34.914 63.0569 34.6433L63.2324 34.4876L63.2471 34.4744C63.6497 34.1171 63.9713 33.8317 64.1966 33.5922C64.4189 33.356 64.6043 33.108 64.646 32.8206C64.7056 32.4095 64.5625 31.9951 64.2585 31.6987C64.046 31.4915 63.7425 31.3978 63.4168 31.3344C63.0866 31.2702 62.6504 31.2239 62.1044 31.1659L62.0844 31.1638L61.9182 31.1462C61.5718 31.1094 61.4794 31.0957 61.4039 31.0644C61.326 31.032 61.2556 30.9851 61.1969 30.9264C61.14 30.8695 61.0947 30.7914 60.9389 30.4935L60.7557 30.1433L60.7467 30.1263C60.5195 29.6918 60.337 29.3429 60.1706 29.0862C60.0052 28.8309 59.8185 28.605 59.5552 28.4857Z" fill="#FFC250"/>
<path fill-rule="evenodd" clip-rule="evenodd" d="M72.7849 28.4857C72.4047 28.3134 71.9636 28.3134 71.5833 28.4857C71.3201 28.6051 71.1334 28.8309 70.9679 29.0862C70.8015 29.3429 70.619 29.6918 70.3918 30.1263L70.3917 30.1263L70.3828 30.1433L70.1997 30.4935C70.0438 30.7915 69.9985 30.8695 69.9416 30.9265C69.8829 30.9852 69.8125 31.0321 69.7346 31.0644C69.659 31.0958 69.5667 31.1094 69.2204 31.1462L69.0541 31.1639L69.0341 31.166H69.0341C68.4881 31.224 68.0519 31.2703 67.7217 31.3345C67.396 31.3978 67.0925 31.4915 66.88 31.6987C66.576 31.9952 66.4329 32.4095 66.4925 32.8207C66.5342 33.1081 66.7197 33.3561 66.9419 33.5923C67.1672 33.8318 67.4888 34.1172 67.8914 34.4746L67.9061 34.4876L68.0817 34.6434C68.3866 34.9141 68.4648 34.9906 68.5086 35.0722C68.5538 35.1564 68.5779 35.2494 68.579 35.3441C68.58 35.4356 68.5475 35.54 68.4079 35.9205L68.4013 35.9385L68.4012 35.9385C68.1951 36.4999 68.0319 36.9445 67.9393 37.2904C67.8492 37.6265 67.7988 37.9564 67.9162 38.2421C68.0813 38.6442 68.4391 38.9455 68.8772 39.0515C69.1876 39.1267 69.5208 39.0391 69.8552 38.9131C70.1985 38.7836 70.6333 38.5759 71.1814 38.314L71.1993 38.3054L71.6255 38.1017C71.9128 37.9644 71.9913 37.9306 72.0666 37.917C72.1443 37.9032 72.224 37.9032 72.3016 37.917C72.3769 37.9306 72.4554 37.9644 72.7428 38.1017L73.1689 38.3054L73.1869 38.314C73.735 38.5759 74.1697 38.7836 74.513 38.9131C74.8474 39.0391 75.1806 39.1267 75.491 39.0515C75.9291 38.9455 76.287 38.6442 76.4521 38.2421C76.5695 37.9564 76.519 37.6265 76.429 37.2904C76.3363 36.9445 76.1731 36.4999 75.967 35.9385V35.9384L75.9604 35.9205C75.8207 35.54 75.7883 35.4356 75.7892 35.3441C75.7903 35.2494 75.8144 35.1564 75.8597 35.0722C75.9034 34.9906 75.9816 34.9141 76.2866 34.6434L76.4621 34.4876L76.4769 34.4745C76.8794 34.1172 77.2011 33.8318 77.4264 33.5923C77.6486 33.3561 77.8341 33.1081 77.8757 32.8207C77.9353 32.4095 77.7922 31.9952 77.4882 31.6987C77.2757 31.4915 76.9722 31.3978 76.6465 31.3345C76.3163 31.2703 75.8801 31.224 75.3342 31.166L75.3142 31.1639L75.1479 31.1462C74.8015 31.1094 74.7092 31.0958 74.6337 31.0644C74.5557 31.0321 74.4854 30.9852 74.4267 30.9265C74.3698 30.8695 74.3245 30.7915 74.1686 30.4935L73.9854 30.1434L73.9765 30.1263C73.7492 29.6918 73.5667 29.3429 73.4004 29.0862C73.2349 28.8309 73.0482 28.6051 72.7849 28.4857Z" fill="#FFC250"/>
<path fill-rule="evenodd" clip-rule="evenodd" d="M86.0147 28.4857C85.6344 28.3134 85.1933 28.3134 84.8131 28.4857C84.5498 28.6051 84.3631 28.8309 84.1976 29.0862C84.0313 29.3429 83.8488 29.6918 83.6215 30.1263L83.6215 30.1263L83.6126 30.1433L83.4294 30.4935C83.2735 30.7915 83.2282 30.8695 83.1713 30.9265C83.1126 30.9852 83.0423 31.0321 82.9643 31.0644C82.8888 31.0958 82.7965 31.1094 82.4501 31.1462L82.2838 31.1639L82.2638 31.166H82.2638C81.7178 31.224 81.2817 31.2703 80.9514 31.3345C80.6257 31.3978 80.3222 31.4915 80.1098 31.6987C79.8058 31.9952 79.6627 32.4095 79.7223 32.8207C79.7639 33.1081 79.9494 33.3561 80.1716 33.5923C80.397 33.8318 80.7186 34.1172 81.1211 34.4746L81.1358 34.4876L81.3114 34.6434C81.6164 34.9141 81.6945 34.9906 81.7384 35.0722C81.7836 35.1564 81.8077 35.2494 81.8087 35.3441C81.8097 35.4356 81.7772 35.54 81.6376 35.9205L81.631 35.9385L81.631 35.9385C81.4249 36.4999 81.2617 36.9445 81.169 37.2904C81.079 37.6265 81.0285 37.9564 81.1459 38.2421C81.311 38.6442 81.6688 38.9455 82.1069 39.0515C82.4174 39.1267 82.7506 39.0391 83.085 38.9131C83.4283 38.7836 83.863 38.5759 84.4111 38.314L84.429 38.3054L84.8552 38.1017C85.1426 37.9644 85.221 37.9306 85.2963 37.917C85.374 37.9032 85.4537 37.9032 85.5314 37.917C85.6067 37.9306 85.6851 37.9644 85.9725 38.1017L86.3987 38.3054L86.4167 38.314C86.9648 38.5759 87.3995 38.7836 87.7427 38.9131C88.0771 39.0391 88.4103 39.1267 88.7208 39.0515C89.1589 38.9455 89.5167 38.6442 89.6818 38.2421C89.7992 37.9564 89.7487 37.6265 89.6587 37.2904C89.566 36.9445 89.4028 36.4999 89.1967 35.9385V35.9384L89.1901 35.9205C89.0505 35.54 89.018 35.4356 89.019 35.3441C89.02 35.2494 89.0441 35.1564 89.0894 35.0722C89.1332 34.9906 89.2113 34.9141 89.5163 34.6434L89.6919 34.4876L89.7066 34.4745C90.1092 34.1172 90.4308 33.8318 90.6561 33.5923C90.8783 33.3561 91.0638 33.1081 91.1055 32.8207C91.1651 32.4095 91.022 31.9952 90.7179 31.6987C90.5055 31.4915 90.202 31.3978 89.8763 31.3345C89.5461 31.2703 89.1099 31.224 88.5639 31.166L88.5439 31.1639L88.3776 31.1462C88.0313 31.1094 87.9389 31.0958 87.8634 31.0644C87.7855 31.0321 87.7151 30.9852 87.6564 30.9265C87.5995 30.8695 87.5542 30.7915 87.3983 30.4935L87.2151 30.1434L87.2062 30.1263C86.9789 29.6918 86.7965 29.3429 86.6301 29.0862C86.4646 28.8309 86.2779 28.6051 86.0147 28.4857Z" fill="#FFC250"/>
<path fill-rule="evenodd" clip-rule="evenodd" d="M99.2444 28.4857C98.8642 28.3134 98.423 28.3134 98.0428 28.4857C97.7796 28.6051 97.5928 28.8309 97.4274 29.0862C97.261 29.3429 97.0785 29.6918 96.8512 30.1263L96.8512 30.1263L96.8423 30.1433L96.6591 30.4935C96.5033 30.7915 96.458 30.8695 96.4011 30.9265C96.3424 30.9852 96.272 31.0321 96.1941 31.0644C96.1185 31.0958 96.0262 31.1094 95.6798 31.1462L95.5135 31.1639L95.4936 31.166H95.4936C94.9476 31.224 94.5114 31.2703 94.1812 31.3345C93.8555 31.3978 93.552 31.4915 93.3395 31.6987C93.0355 31.9952 92.8924 32.4095 92.952 32.8207C92.9936 33.1081 93.1791 33.3561 93.4014 33.5923C93.6267 33.8318 93.9483 34.1172 94.3509 34.4746L94.3656 34.4876L94.5411 34.6434C94.8461 34.9141 94.9243 34.9906 94.9681 35.0722C95.0133 35.1564 95.0374 35.2494 95.0384 35.3441C95.0395 35.4356 95.007 35.54 94.8673 35.9205L94.8607 35.9385L94.8607 35.9385C94.6546 36.4999 94.4914 36.9445 94.3987 37.2904C94.3087 37.6265 94.2583 37.9564 94.3756 38.2421C94.5408 38.6442 94.8986 38.9455 95.3367 39.0515C95.6471 39.1267 95.9803 39.0391 96.3147 38.9131C96.658 38.7836 97.0927 38.5759 97.6408 38.314L97.6588 38.3054L98.085 38.1017C98.3723 37.9644 98.4508 37.9306 98.5261 37.917C98.6037 37.9032 98.6835 37.9032 98.7611 37.917C98.8364 37.9306 98.9149 37.9644 99.2022 38.1017L99.6284 38.3054L99.6464 38.314C100.194 38.5759 100.629 38.7836 100.972 38.9131C101.307 39.0391 101.64 39.1267 101.951 39.0515C102.389 38.9455 102.746 38.6442 102.912 38.2421C103.029 37.9564 102.978 37.6265 102.888 37.2904C102.796 36.9445 102.633 36.4999 102.426 35.9385V35.9384L102.42 35.9205C102.28 35.54 102.248 35.4356 102.249 35.3441C102.25 35.2494 102.274 35.1564 102.319 35.0722C102.363 34.9906 102.441 34.9141 102.746 34.6434L102.922 34.4876L102.936 34.4745C103.339 34.1172 103.661 33.8318 103.886 33.5923C104.108 33.3561 104.294 33.1081 104.335 32.8207C104.395 32.4095 104.252 31.9952 103.948 31.6987C103.735 31.4915 103.432 31.3978 103.106 31.3345C102.776 31.2703 102.34 31.224 101.794 31.166L101.774 31.1639L101.607 31.1462C101.261 31.1094 101.169 31.0958 101.093 31.0644C101.015 31.0321 100.945 30.9852 100.886 30.9265C100.829 30.8695 100.784 30.7915 100.628 30.4935L100.445 30.1434L100.436 30.1263C100.209 29.6918 100.026 29.3429 99.8598 29.0862C99.6944 28.8309 99.5077 28.6051 99.2444 28.4857Z" fill="#FFC250"/>
<path fill-rule="evenodd" clip-rule="evenodd" d="M112.474 28.4857C112.094 28.3134 111.653 28.3134 111.273 28.4857C111.009 28.6051 110.823 28.8309 110.657 29.0862C110.491 29.3429 110.308 29.6918 110.081 30.1263L110.081 30.1263L110.072 30.1433L109.889 30.4935C109.733 30.7915 109.688 30.8695 109.631 30.9265C109.572 30.9852 109.502 31.0321 109.424 31.0644C109.348 31.0958 109.256 31.1094 108.91 31.1462L108.743 31.1639L108.723 31.166H108.723C108.177 31.224 107.741 31.2703 107.411 31.3345C107.085 31.3978 106.782 31.4915 106.569 31.6987C106.265 31.9952 106.122 32.4095 106.182 32.8207C106.223 33.1081 106.409 33.3561 106.631 33.5923C106.856 33.8318 107.178 34.1172 107.581 34.4746L107.595 34.4876L107.771 34.6434C108.076 34.9141 108.154 34.9906 108.198 35.0722C108.243 35.1564 108.267 35.2494 108.268 35.3441C108.269 35.4356 108.237 35.54 108.097 35.9205L108.09 35.9385L108.09 35.9385C107.884 36.4999 107.721 36.9445 107.628 37.2904C107.538 37.6265 107.488 37.9564 107.605 38.2421C107.771 38.6442 108.128 38.9455 108.566 39.0515C108.877 39.1267 109.21 39.0391 109.544 38.9131C109.888 38.7836 110.322 38.5759 110.871 38.314L110.889 38.3054L111.315 38.1017C111.602 37.9644 111.681 37.9306 111.756 37.917C111.833 37.9032 111.913 37.9032 111.991 37.917C112.066 37.9306 112.145 37.9644 112.432 38.1017L112.858 38.3054L112.876 38.314C113.424 38.5759 113.859 38.7836 114.202 38.9131C114.537 39.0391 114.87 39.1267 115.18 39.0515C115.618 38.9455 115.976 38.6442 116.141 38.2421C116.259 37.9564 116.208 37.6265 116.118 37.2904C116.026 36.9445 115.862 36.4999 115.656 35.9385V35.9384L115.65 35.9205C115.51 35.54 115.477 35.4356 115.478 35.3441C115.48 35.2494 115.504 35.1564 115.549 35.0722C115.593 34.9906 115.671 34.9141 115.976 34.6434L116.151 34.4876L116.166 34.4745C116.569 34.1172 116.89 33.8318 117.116 33.5923C117.338 33.3561 117.523 33.1081 117.565 32.8207C117.625 32.4095 117.481 31.9952 117.177 31.6987C116.965 31.4915 116.661 31.3978 116.336 31.3345C116.006 31.2703 115.569 31.224 115.023 31.166L115.003 31.1639L114.837 31.1462C114.491 31.1094 114.398 31.0958 114.323 31.0644C114.245 31.0321 114.175 30.9852 114.116 30.9265C114.059 30.8695 114.014 30.7915 113.858 30.4935L113.675 30.1434L113.666 30.1263C113.438 29.6918 113.256 29.3429 113.09 29.0862C112.924 28.8309 112.737 28.6051 112.474 28.4857Z" fill="#FFC250"/>
<circle cx="23.25" cy="22.5" r="22.5"/>
<path d="M55.8145 21.75L60.6505 7.71H62.5518L67.3878 21.75H65.896L61.3038 8.5095H61.8693L57.3063 21.75H55.8145ZM57.9693 18.3472V17.0017H65.2233V18.3472H57.9693ZM72.5901 22.0328C71.3551 22.0328 70.3379 21.7662 69.5384 21.2332C68.7454 20.7002 68.2579 19.9592 68.0759 19.0102L69.5384 18.7665C69.6944 19.3645 70.0486 19.8422 70.6011 20.1997C71.1601 20.5507 71.8491 20.7262 72.6681 20.7262C73.4676 20.7262 74.0981 20.5605 74.5596 20.229C75.0211 19.891 75.2519 19.4327 75.2519 18.8542C75.2519 18.5292 75.1771 18.266 75.0276 18.0645C74.8846 17.8565 74.5889 17.6647 74.1404 17.4892C73.6919 17.3137 73.0224 17.1057 72.1319 16.8652C71.1764 16.6052 70.4289 16.3452 69.8894 16.0852C69.3499 15.8252 68.9664 15.5262 68.7389 15.1882C68.5114 14.8437 68.3976 14.4245 68.3976 13.9305C68.3976 13.3325 68.5666 12.8092 68.9046 12.3607C69.2426 11.9057 69.7106 11.5547 70.3086 11.3077C70.9066 11.0542 71.6021 10.9275 72.3951 10.9275C73.1881 10.9275 73.8966 11.0575 74.5206 11.3175C75.1511 11.571 75.6581 11.9285 76.0416 12.39C76.4251 12.8515 76.6526 13.3877 76.7241 13.9987L75.2616 14.262C75.1641 13.6445 74.8554 13.157 74.3354 12.7995C73.8219 12.4355 73.1686 12.247 72.3756 12.234C71.6281 12.2145 71.0204 12.3575 70.5524 12.663C70.0844 12.962 69.8504 13.3617 69.8504 13.8622C69.8504 14.1417 69.9349 14.3822 70.1039 14.5837C70.2729 14.7787 70.5784 14.964 71.0204 15.1395C71.4689 15.315 72.1059 15.5067 72.9314 15.7147C73.8999 15.9617 74.6604 16.2217 75.2129 16.4947C75.7654 16.7677 76.1586 17.0895 76.3926 17.46C76.6266 17.8305 76.7436 18.2887 76.7436 18.8347C76.7436 19.8292 76.3731 20.6125 75.6321 21.1845C74.8976 21.75 73.8836 22.0328 72.5901 22.0328ZM86.0235 21.75V16.3778C86.0235 15.7927 85.9683 15.2565 85.8578 14.769C85.7473 14.275 85.5685 13.846 85.3215 13.482C85.081 13.1115 84.7658 12.8255 84.3758 12.624C83.9923 12.4225 83.5243 12.3217 82.9718 12.3217C82.4648 12.3217 82.0163 12.4095 81.6263 12.585C81.2428 12.7605 80.9178 13.014 80.6513 13.3455C80.3913 13.6705 80.193 14.067 80.0565 14.535C79.92 15.003 79.8518 15.536 79.8518 16.134L78.8378 15.9097C78.8378 14.8307 79.0263 13.924 79.4033 13.1895C79.7803 12.455 80.3003 11.8992 80.9633 11.5222C81.6263 11.1452 82.3868 10.9568 83.2448 10.9568C83.8753 10.9568 84.4245 11.0542 84.8925 11.2492C85.367 11.4442 85.7668 11.7075 86.0918 12.039C86.4233 12.3705 86.6898 12.7507 86.8913 13.1797C87.0928 13.6022 87.239 14.054 87.33 14.535C87.421 15.0095 87.4665 15.484 87.4665 15.9585V21.75H86.0235ZM78.4088 21.75V7.71H79.7055V15.6367H79.8518V21.75H78.4088ZM89.7041 21.75V7.4175H91.1374V21.75H89.7041ZM98.0287 22.0425C97.0017 22.0425 96.1112 21.815 95.3572 21.36C94.6097 20.905 94.0279 20.2647 93.6119 19.4392C93.1959 18.6137 92.9879 17.6452 92.9879 16.5337C92.9879 15.3832 93.1927 14.3887 93.6022 13.5502C94.0117 12.7117 94.5869 12.065 95.3279 11.61C96.0754 11.155 96.9562 10.9275 97.9702 10.9275C99.0102 10.9275 99.8974 11.168 100.632 11.649C101.366 12.1235 101.922 12.806 102.299 13.6965C102.676 14.587 102.848 15.6497 102.816 16.8847H101.353V16.3778C101.327 15.0127 101.032 13.9825 100.466 13.287C99.9072 12.5915 99.0882 12.2437 98.0092 12.2437C96.8782 12.2437 96.0104 12.611 95.4059 13.3455C94.8079 14.08 94.5089 15.1265 94.5089 16.485C94.5089 17.811 94.8079 18.8412 95.4059 19.5757C96.0104 20.3037 96.8652 20.6677 97.9702 20.6677C98.7242 20.6677 99.3807 20.4955 99.9397 20.151C100.505 19.8 100.95 19.2962 101.275 18.6397L102.611 19.1565C102.195 20.073 101.581 20.7847 100.768 21.2917C99.9624 21.7923 99.0492 22.0425 98.0287 22.0425ZM94.0019 16.8847V15.6855H102.046V16.8847H94.0019ZM105.803 26.43L107.841 20.9017L107.87 22.5398L103.258 11.22H104.779L108.562 20.6872H107.938L111.429 11.22H112.891L107.236 26.43H105.803ZM123.198 22.0425C121.8 22.0425 120.621 21.7337 119.659 21.1162C118.697 20.4922 117.969 19.631 117.475 18.5325C116.981 17.434 116.734 16.1665 116.734 14.73C116.734 13.2935 116.981 12.026 117.475 10.9275C117.969 9.829 118.697 8.971 119.659 8.3535C120.621 7.7295 121.8 7.4175 123.198 7.4175C124.829 7.4175 126.162 7.83675 127.195 8.67525C128.229 9.50725 128.937 10.6252 129.321 12.0292L127.858 12.4095C127.559 11.298 127.023 10.4172 126.25 9.76725C125.476 9.11725 124.459 8.79225 123.198 8.79225C122.099 8.79225 121.186 9.0425 120.458 9.543C119.73 10.0435 119.181 10.7422 118.81 11.6392C118.446 12.5297 118.258 13.56 118.245 14.73C118.238 15.9 118.417 16.9302 118.781 17.8207C119.152 18.7112 119.704 19.41 120.439 19.917C121.18 20.4175 122.099 20.6677 123.198 20.6677C124.459 20.6677 125.476 20.3427 126.25 19.6927C127.023 19.0362 127.559 18.1555 127.858 17.0505L129.321 17.4307C128.937 18.8347 128.229 19.956 127.195 20.7945C126.162 21.6265 124.829 22.0425 123.198 22.0425ZM135.382 22.0425C134.335 22.0425 133.442 21.8053 132.701 21.3307C131.96 20.8562 131.391 20.1997 130.994 19.3612C130.598 18.5227 130.4 17.5607 130.4 16.4752C130.4 15.3702 130.601 14.4017 131.004 13.5697C131.407 12.7377 131.979 12.091 132.72 11.6295C133.468 11.1615 134.355 10.9275 135.382 10.9275C136.435 10.9275 137.332 11.1647 138.073 11.6392C138.82 12.1072 139.389 12.7605 139.779 13.599C140.176 14.431 140.374 15.3897 140.374 16.4752C140.374 17.5802 140.176 18.552 139.779 19.3905C139.383 20.2225 138.811 20.8725 138.063 21.3405C137.316 21.8085 136.422 22.0425 135.382 22.0425ZM135.382 20.6677C136.552 20.6677 137.423 20.281 137.995 19.5075C138.567 18.7275 138.853 17.7167 138.853 16.4752C138.853 15.2012 138.564 14.1872 137.985 13.4332C137.413 12.6792 136.545 12.3022 135.382 12.3022C134.595 12.3022 133.945 12.481 133.432 12.8385C132.925 13.1895 132.545 13.6802 132.291 14.3107C132.044 14.9347 131.921 15.6562 131.921 16.4752C131.921 17.7427 132.213 18.76 132.798 19.527C133.383 20.2875 134.244 20.6677 135.382 20.6677ZM146.435 22.0425C145.388 22.0425 144.494 21.8053 143.753 21.3307C143.012 20.8562 142.444 20.1997 142.047 19.3612C141.651 18.5227 141.452 17.5607 141.452 16.4752C141.452 15.3702 141.654 14.4017 142.057 13.5697C142.46 12.7377 143.032 12.091 143.773 11.6295C144.52 11.1615 145.408 10.9275 146.435 10.9275C147.488 10.9275 148.385 11.1647 149.126 11.6392C149.873 12.1072 150.442 12.7605 150.832 13.599C151.228 14.431 151.427 15.3897 151.427 16.4752C151.427 17.5802 151.228 18.552 150.832 19.3905C150.435 20.2225 149.863 20.8725 149.116 21.3405C148.368 21.8085 147.475 22.0425 146.435 22.0425ZM146.435 20.6677C147.605 20.6677 148.476 20.281 149.048 19.5075C149.62 18.7275 149.906 17.7167 149.906 16.4752C149.906 15.2012 149.616 14.1872 149.038 13.4332C148.466 12.6792 147.598 12.3022 146.435 12.3022C145.648 12.3022 144.998 12.481 144.485 12.8385C143.978 13.1895 143.597 13.6802 143.344 14.3107C143.097 14.9347 142.973 15.6562 142.973 16.4752C142.973 17.7427 143.266 18.76 143.851 19.527C144.436 20.2875 145.297 20.6677 146.435 20.6677ZM157.819 22.0425C156.85 22.0425 156.031 21.7988 155.362 21.3112C154.692 20.8172 154.185 20.151 153.841 19.3125C153.496 18.4675 153.324 17.5217 153.324 16.4752C153.324 15.4092 153.496 14.4602 153.841 13.6282C154.192 12.7897 154.705 12.13 155.381 11.649C156.057 11.168 156.889 10.9275 157.877 10.9275C158.839 10.9275 159.665 11.1712 160.354 11.6587C161.043 12.1462 161.569 12.8092 161.933 13.6477C162.304 14.4862 162.489 15.4287 162.489 16.4752C162.489 17.5282 162.304 18.474 161.933 19.3125C161.563 20.151 161.03 20.8172 160.334 21.3112C159.639 21.7988 158.8 22.0425 157.819 22.0425ZM153.08 26.43V11.22H154.367V19.1467H154.523V26.43H153.08ZM157.672 20.7067C158.407 20.7067 159.018 20.5215 159.505 20.151C159.993 19.7805 160.357 19.2767 160.597 18.6397C160.844 17.9962 160.968 17.2747 160.968 16.4752C160.968 15.6822 160.848 14.9672 160.607 14.3302C160.367 13.6932 159.999 13.1895 159.505 12.819C159.018 12.4485 158.397 12.2632 157.643 12.2632C156.909 12.2632 156.298 12.442 155.81 12.7995C155.329 13.157 154.968 13.6542 154.728 14.2912C154.487 14.9217 154.367 15.6497 154.367 16.4752C154.367 17.2877 154.487 18.0157 154.728 18.6592C154.968 19.2962 155.332 19.7967 155.82 20.1607C156.307 20.5247 156.925 20.7067 157.672 20.7067ZM168.598 22.0425C167.571 22.0425 166.681 21.815 165.927 21.36C165.179 20.905 164.597 20.2647 164.181 19.4392C163.765 18.6137 163.557 17.6452 163.557 16.5337C163.557 15.3832 163.762 14.3887 164.172 13.5502C164.581 12.7117 165.156 12.065 165.897 11.61C166.645 11.155 167.526 10.9275 168.54 10.9275C169.58 10.9275 170.467 11.168 171.201 11.649C171.936 12.1235 172.492 12.806 172.869 13.6965C173.246 14.587 173.418 15.6497 173.385 16.8847H171.923V16.3778C171.897 15.0127 171.601 13.9825 171.036 13.287C170.477 12.5915 169.658 12.2437 168.579 12.2437C167.448 12.2437 166.58 12.611 165.975 13.3455C165.377 14.08 165.078 15.1265 165.078 16.485C165.078 17.811 165.377 18.8412 165.975 19.5757C166.58 20.3037 167.435 20.6677 168.54 20.6677C169.294 20.6677 169.95 20.4955 170.509 20.151C171.075 19.8 171.52 19.2962 171.845 18.6397L173.181 19.1565C172.765 20.073 172.15 20.7847 171.338 21.2917C170.532 21.7923 169.619 22.0425 168.598 22.0425ZM164.571 16.8847V15.6855H172.615V16.8847H164.571ZM175.062 21.75V11.22H176.349V13.755L176.095 13.4235C176.212 13.1115 176.365 12.8255 176.553 12.5655C176.742 12.299 176.947 12.0812 177.168 11.9122C177.441 11.6717 177.759 11.4897 178.123 11.3662C178.487 11.2362 178.854 11.1615 179.225 11.142C179.595 11.116 179.933 11.142 180.239 11.22V12.5655C179.855 12.468 179.436 12.4452 178.981 12.4972C178.526 12.5492 178.107 12.7312 177.723 13.0432C177.372 13.3162 177.109 13.6445 176.934 14.028C176.758 14.405 176.641 14.808 176.583 15.237C176.524 15.6595 176.495 16.0787 176.495 16.4947V21.75H175.062Z" fill="black"/>
</svg>
