<svg width="48" height="48" viewBox="0 0 48 48" fill="none" xmlns="http://www.w3.org/2000/svg">
<rect x="0.10498" y="0.0449219" width="47.1579" height="47.1579" rx="10.1053" fill="#18203A"/>
<path d="M14.6672 30.6074C14.3384 30.9363 14.3384 31.4695 14.6672 31.7983C14.9961 32.1272 15.5293 32.1272 15.8582 31.7983L14.6672 30.6074ZM32.1048 15.2029C32.1048 14.7378 31.7278 14.3608 31.2627 14.3608H23.6837C23.2187 14.3608 22.8416 14.7378 22.8416 15.2029C22.8416 15.668 23.2187 16.045 23.6837 16.045H30.4206V22.7818C30.4206 23.2469 30.7976 23.6239 31.2627 23.6239C31.7278 23.6239 32.1048 23.2469 32.1048 22.7818V15.2029ZM15.8582 31.7983L31.8582 15.7983L30.6672 14.6074L14.6672 30.6074L15.8582 31.7983Z" fill="white"/>
</svg>
