<svg width="75" height="75" viewBox="0 0 75 75" fill="none" xmlns="http://www.w3.org/2000/svg">
<rect x="0.268555" y="0.37793" width="74.1463" height="74.1463" rx="15.6098" fill="#6FCF97"/>
<g clip-path="url(#clip0_566_11091)">
<path d="M48.2359 27.0449H27.4229C25.992 27.0449 24.8343 28.2157 24.8343 29.6465L24.8213 45.2563C24.8213 46.6872 25.992 47.8579 27.4229 47.8579H48.2359C49.6668 47.8579 50.8376 46.6872 50.8376 45.2563V29.6465C50.8376 28.2157 49.6668 27.0449 48.2359 27.0449ZM41.7319 45.2563H27.4229V40.0531H41.7319V45.2563ZM41.7319 38.7522H27.4229V33.549H41.7319V38.7522ZM48.2359 45.2563H43.0327V33.549H48.2359V45.2563Z" fill="white"/>
</g>
<defs>
<clipPath id="clip0_566_11091">
<rect width="31.2195" height="31.2195" fill="white" transform="translate(22.2197 21.8413)"/>
</clipPath>
</defs>
</svg>
