<svg width="160" height="46" viewBox="0 0 160 46" fill="none" xmlns="http://www.w3.org/2000/svg">
<path d="M17.9443 1.82612C18.1352 1.81123 18.3645 1.841 18.5491 1.8899C19.1965 2.06004 19.6726 2.45771 20.007 3.02339C19.9534 3.13184 19.8505 3.22967 19.7733 3.32323C19.6468 3.4806 19.531 3.64647 19.4194 3.81235C18.9628 4.49499 18.5812 5.25844 18.3045 6.03252L17.7556 5.90279C17.0866 5.76244 16.4156 5.7114 15.7337 5.69013C15.62 5.37753 15.5214 5.02876 15.4892 4.69489C15.4205 3.99525 15.6221 3.37428 16.0639 2.832C16.5355 2.25356 17.2003 1.90054 17.94 1.82612H17.9443Z" fill="#E35682"/>
<path d="M31.4998 1.85392C31.785 1.83054 32.0873 1.87094 32.3575 1.96237C33.1465 2.22608 33.6675 2.69393 34.0322 3.42973C34.4137 4.19744 34.2766 4.93962 34.0128 5.71157C33.4146 5.68818 32.8035 5.74134 32.2138 5.83492L31.2383 6.0178C31.0259 5.48827 30.8051 4.96939 30.5242 4.47177C30.2476 3.98052 29.9196 3.52542 29.5894 3.06821L29.8166 2.76836C30.2732 2.20694 30.7772 1.93473 31.4955 1.85392H31.4998Z" fill="#E35682"/>
<path d="M30.5655 23.4857L30.7605 23.4751L30.7991 23.5134V24.4172C30.7305 25.5295 30.2909 26.631 29.429 27.3688C28.5734 28.1004 27.4563 28.3152 26.3562 28.243L29.0279 25.4847C29.1267 25.3806 29.2253 25.2785 29.3002 25.1573L26.0283 27.6815C26.1226 26.7097 26.412 25.7463 27.049 24.9828C27.9323 23.9259 29.2489 23.6027 30.5655 23.4857Z" fill="#E35682"/>
<path d="M18.7971 23.4197C19.7535 23.4303 20.7633 23.6046 21.5631 24.1597C22.7811 25.0039 23.3385 26.2692 23.5872 27.6793L20.0386 25.0295C20.0686 25.1082 20.148 25.1804 20.2037 25.2443L23.2593 28.2385C22.8111 28.2917 22.3221 28.2811 21.8761 28.2044C20.8985 28.0344 19.9485 27.5197 19.3739 26.7032C18.6621 25.693 18.5913 24.5999 18.7971 23.4197Z" fill="#E35682"/>
<path d="M33.3741 29.0339C33.5993 28.9999 33.8631 29.0105 34.0903 29.0147C35.8765 29.0466 37.7055 29.8079 39.2214 30.7011L38.2866 32.1323C36.8284 34.0654 34.9545 35.7284 32.4565 36.0793C31.0841 36.2706 29.654 36.0069 28.4533 35.318C28.2217 35.1861 28.0094 35.0202 27.795 34.8607L30.8633 33.2403C32.1927 32.6576 33.5672 32.1726 34.9738 31.8091C35.4005 31.6985 35.8357 31.5773 36.2689 31.4986L36.3032 31.4922C36.1574 31.471 35.9879 31.5135 35.8422 31.5326L34.8044 31.6964C32.9004 32.0345 31.0756 32.5066 29.3109 33.3062L27.2632 34.3461C27.6449 33.4784 28.1252 32.632 28.7062 31.8792C29.223 31.2116 29.8876 30.5268 30.5932 30.0589C31.4143 29.5145 32.4007 29.1636 33.3785 29.0359L33.3741 29.0339Z" fill="#E35682"/>
<path d="M15.4018 29.0893C16.4418 28.9831 17.5374 29.2234 18.4616 29.6912C19.0255 29.9762 19.5314 30.3313 19.9883 30.7673C20.4256 31.1819 20.7944 31.688 21.1375 32.1793C21.6049 32.8471 22.1024 33.6019 22.3575 34.3804C20.432 33.1746 18.1699 32.4069 15.9593 31.905L13.3455 31.3988C13.4184 31.4499 13.5127 31.4648 13.5985 31.4882L14.1217 31.6413L15.8199 32.1729L18.1592 33.0236C19.4371 33.5446 20.683 34.1337 21.858 34.8567L21.412 35.1501C19.9261 36.0752 17.9983 36.4155 16.2917 36.0179C15.7941 35.903 15.3117 35.686 14.8657 35.4458C13.7507 34.8461 12.8802 34.0359 12.0482 33.1001C11.3707 32.3366 10.7488 31.5221 10.2085 30.6589C11.5336 30.0017 12.9316 29.453 14.3961 29.1979C14.7285 29.1404 15.0673 29.1212 15.4018 29.0936V29.0893Z" fill="#E35682"/>
<path d="M36.1552 21.7802C35.0188 22.482 34.1912 23.6474 33.8953 24.9403L33.7859 25.5337C33.7795 25.574 33.7731 25.7123 33.7537 25.7399C33.7109 25.8016 33.5478 25.8951 33.4835 25.944L32.7181 26.5353C31.9805 27.1201 31.273 27.7602 30.6125 28.4259C28.8542 30.1973 27.3469 32.1091 26.1997 34.325C26.0496 34.6164 25.8995 34.9161 25.7752 35.2182L25.432 36.1198C25.3935 36.2282 25.3549 36.4219 25.2864 36.509L25.2519 22.5011C26.5214 22.431 27.8057 22.2608 29.0343 21.9333C31.7575 21.2039 34.3413 19.6642 36.2217 17.5695C38.2566 15.3047 39.6181 12.2552 39.4316 9.18223C39.4188 8.96957 39.3458 8.04025 39.2172 7.89777C39.0714 7.73827 38.7648 7.58729 38.5761 7.47245C37.0343 6.541 35.0703 6.12419 33.2755 6.24327C32.6517 6.28368 32.0492 6.40915 31.4467 6.57078L31.8154 8.12107C33.2327 8.38051 34.4935 8.83347 35.6685 9.67135C35.8293 9.78619 36.0739 9.92016 36.1939 10.0711C36.3332 10.8069 36.3204 11.5406 36.2796 12.2849C36.0995 12.3296 35.838 12.2892 35.6492 12.2871L34.8708 12.319C33.4965 12.4125 32.1606 12.7868 30.9106 13.3504C31.0499 12.9314 31.1808 12.5146 31.2666 12.0808C31.749 9.64583 31.2922 7.15559 30.1708 4.95457C29.1952 3.0385 27.5613 1.43717 25.6573 0.422783C25.4086 0.288808 25.1062 0.0910346 24.8361 0.00597077C24.8038 -0.00466221 24.7782 0.00171757 24.746 0.00384417C22.0957 1.20537 19.913 3.28731 18.8859 6.02424C18.2941 7.60642 18.0367 9.39702 18.1955 11.0813C18.2662 11.8426 18.4269 12.5848 18.5964 13.3312C16.9432 12.5423 15.1506 12.1488 13.313 12.3147C13.268 11.7575 13.2273 11.2089 13.253 10.6496C13.2637 10.4412 13.2637 10.2158 13.3238 10.0159C13.5232 9.84573 13.7548 9.72026 13.9799 9.58416C14.9448 9.00148 15.9526 8.58679 17.0697 8.38476C17.2349 8.35711 17.7516 8.27417 17.7537 8.26779C17.7601 8.25504 17.7665 8.15934 17.7686 8.13807L17.8266 7.78081C17.9059 7.35974 18.0024 6.95143 18.1246 6.541C15.706 5.89452 13.1222 6.25816 10.9544 7.49797C10.8729 7.54475 10.6478 7.63833 10.5963 7.70425C10.5749 7.72976 10.5577 7.81696 10.5449 7.84886L10.4098 8.29119C9.77509 10.6623 10.5706 13.2164 11.7821 15.2728C13.7376 18.5924 17.2562 21.0784 20.985 22.0418C22.1043 22.331 23.1893 22.4607 24.3407 22.4926L24.3064 36.5005C24.1005 35.9901 23.9547 35.4628 23.7318 34.9566C23.0628 33.4382 22.1557 32.0304 21.1286 30.7311L20.211 29.6125C19.2568 28.5534 18.1889 27.5837 17.0782 26.6863C16.9775 26.6055 15.8668 25.7994 15.8604 25.7845C15.8089 25.6697 15.8025 25.4613 15.7746 25.3316C15.7295 25.1232 15.6694 24.9191 15.603 24.717C15.0992 23.1667 14.1257 22.0035 12.6162 21.3379C11.0102 20.6318 9.2026 20.8466 7.54942 21.2336C7.52368 21.3952 7.58157 21.6249 7.60731 21.7908C7.76812 22.8223 8.10476 23.8749 8.73301 24.7255C9.56711 25.8526 10.6285 26.6139 12.0008 26.9585C12.9142 27.186 13.997 27.0839 14.8933 26.8415C15.0241 26.8074 15.1914 26.7777 15.3115 26.7139L15.3328 26.7012L10.1075 22.9966L10.1332 22.9753L12.5668 24.23C13.7462 24.8573 14.9083 25.5421 16.0083 26.295C16.688 26.7607 17.3034 27.2795 17.9145 27.8262C19.2138 28.9872 20.3503 30.2462 21.3581 31.6624L21.9006 32.4323C22.2736 33.015 22.5974 33.636 22.9083 34.2527C23.4465 35.3182 23.7231 35.9028 23.9268 36.6898C24.1005 37.364 24.0426 37.5297 24.1885 40.5559C24.2313 41.4491 24.2528 41.8957 24.2828 42.3019C24.3965 43.8543 24.6002 45.1196 24.7695 46C25.0354 44.4815 25.1533 43.2375 25.2112 42.3422C25.2519 41.6958 25.2755 41.0237 25.2928 40.5367C25.3528 38.8142 25.3164 38.4548 25.3549 37.938C25.4493 36.6813 25.9274 35.8158 26.6564 34.3632C27.9923 31.7072 29.92 29.4423 32.1563 27.4859C32.7888 26.933 33.4365 26.395 34.1269 25.9143C35.72 24.8063 37.4761 23.9323 39.2879 23.2412L39.2987 23.2731L34.2276 26.7055C34.6394 26.833 35.0467 26.952 35.4756 27.0179C36.627 27.1944 37.8063 27.035 38.8442 26.5012C40.8533 25.4677 41.7539 23.3539 42.4378 21.3336C40.3536 20.8487 38.0573 20.5979 36.1552 21.7738V21.7802ZM35.2911 13.3312H36.1146C35.9002 14.6199 35.2419 15.981 34.442 17.006C33.4771 18.2416 32.2357 19.2899 30.8291 20.0023C29.9907 20.4277 29.0965 20.7063 28.1853 20.9295C27.5763 21.0784 26.9738 21.206 26.352 21.2847L25.505 21.3633C25.966 19.6556 26.8172 18.0012 28.0051 16.6785C29.9006 14.5647 32.4758 13.4907 35.2911 13.3312ZM29.9457 8.12956C30.3809 9.51398 30.5182 10.9388 30.175 12.3636C30.0765 12.7762 29.9306 13.1781 29.7869 13.5779C29.7377 13.7119 29.6819 13.933 29.5962 14.05C29.5276 14.1415 29.2208 14.2861 29.1094 14.3541L28.1124 12.4912C27.6856 11.8596 27.214 11.2684 26.6736 10.7261L25.6637 9.79682C26.0839 9.52674 26.5193 9.26092 26.9696 9.044C27.8872 8.60379 28.8499 8.32309 29.8427 8.0998C29.9049 8.09554 29.8921 8.08491 29.9457 8.1317V8.12956ZM24.8016 3.40214H24.8082C25.1491 3.5106 25.5072 3.73177 25.818 3.91253C27.1989 4.71851 28.5348 5.79244 29.3754 7.17048C29.3045 7.23427 28.9206 7.27893 28.8071 7.30658C28.3311 7.41716 27.87 7.5724 27.4176 7.75529C26.4848 8.1317 25.6487 8.62081 24.8103 9.16309C24.7352 9.17798 24.0019 8.6676 23.8925 8.60806C22.7669 7.96157 21.5253 7.42992 20.2432 7.18748C21.283 5.47558 23.0092 4.24215 24.8016 3.40214ZM19.2932 9.7394C19.3747 9.1716 19.5419 8.64633 19.7263 8.10618C20.8285 8.30182 21.877 8.68673 22.8676 9.19925C23.2236 9.38213 23.5923 9.57778 23.9076 9.82446L23.0092 10.639C22.4474 11.1834 21.9477 11.8043 21.4995 12.4423C21.0944 13.0569 20.792 13.7013 20.5004 14.3733C20.3075 14.3031 20.063 14.0947 19.9043 13.9628C19.8163 13.7608 19.7586 13.5439 19.6899 13.3355C19.3168 12.2233 19.1282 10.9069 19.2954 9.7394H19.2932ZM21.8663 21.1316C20.5283 20.8785 19.0874 20.3363 17.9424 19.594C15.736 18.1608 14.0464 15.8703 13.506 13.2908C15.2707 13.2398 16.9153 13.5843 18.4957 14.3796C21.3152 15.8045 23.2085 18.4159 24.1757 21.3592C23.4016 21.3314 22.6275 21.2741 21.8663 21.1295V21.1316ZM24.821 20.0194L24.7867 20.0598C24.5766 19.5877 24.3835 19.1092 24.1456 18.6519C23.6696 17.7376 23.0499 16.8572 22.3552 16.0937L21.3324 15.0665C21.3709 14.8177 21.5446 14.503 21.6496 14.269C22.3509 12.7315 23.4422 11.5109 24.7524 10.4582C24.7846 10.4582 24.8103 10.4667 24.8403 10.4795C25.0526 10.5815 25.2691 10.8069 25.4471 10.9643C26.65 12.0212 27.7371 13.4631 28.2689 14.9772C28.271 14.9878 28.2796 14.9964 28.2796 15.0091C28.2796 15.0134 28.2067 15.0772 28.2002 15.0814L27.7307 15.5259C26.7379 16.4872 25.9253 17.6588 25.3249 18.8965L24.8231 20.0194H24.821Z" fill="#E35682"/>
<path d="M79.7034 6.1333C80.4127 6.1333 81.0221 6.39302 81.5275 6.9084C82.033 7.42581 82.2858 8.03657 82.2858 8.74471V20.7C82.2858 22.7391 81.9434 24.6161 81.2605 26.3307C80.8773 27.2275 80.433 28.0716 79.9275 28.8608C79.4221 29.6502 78.8147 30.3705 78.1034 31.0239C76.6541 32.4117 74.9399 33.4648 72.9588 34.1852C70.9777 34.9055 68.7845 35.2666 66.3815 35.2666H64.2902C61.8851 35.2666 59.7002 34.9196 57.7332 34.2257C55.7664 33.5318 54.0584 32.4908 52.6091 31.105C52.0893 30.5897 51.8245 29.9768 51.8102 29.2687C51.7959 28.5626 52.0365 27.9499 52.5276 27.4324C53.0454 26.8887 53.6608 26.6168 54.3722 26.6168C55.0836 26.6168 55.6971 26.8623 56.2169 27.3513C58.1286 29.1733 60.8212 30.0844 64.2902 30.0844H66.3815C68.0202 30.0844 69.5021 29.8673 70.8288 29.4311C72.1538 28.9968 73.2808 28.3699 74.2103 27.5541C75.1397 26.7385 75.849 25.7523 76.3423 24.5957C76.8336 23.4393 77.0801 22.1405 77.0801 20.7V8.74471C77.0801 8.03859 77.3329 7.42581 77.8384 6.9084C78.3438 6.39302 78.9655 6.1333 79.7034 6.1333Z" fill="#E35682"/>
<path d="M120.146 31.5911C120.438 32.2444 120.458 32.9038 120.206 33.5694C119.952 34.2368 119.507 34.7198 118.868 35.0181C118.548 35.1803 118.203 35.2636 117.83 35.2636C117.351 35.2636 116.899 35.1276 116.472 34.8557C116.045 34.5838 115.727 34.2166 115.513 33.754L106.651 13.8029C106.306 13.042 105.786 12.4435 105.095 12.0072C104.402 11.573 103.658 11.3539 102.859 11.3539C102.061 11.3539 101.283 11.571 100.604 12.0072C99.9255 12.4435 99.4133 13.042 99.0679 13.8029L90.1664 33.754C89.8726 34.4074 89.4021 34.8557 88.7489 35.1012C88.0958 35.3467 87.4507 35.3183 86.8134 35.0201C86.1742 34.7218 85.7355 34.2388 85.4953 33.5714C85.2552 32.9059 85.2829 32.2444 85.5747 31.5931L94.4364 11.6826C95.2087 9.9965 96.3462 8.64926 97.849 7.64287C99.3518 6.63649 101.023 6.1333 102.859 6.1333C104.696 6.1333 106.332 6.63649 107.848 7.64287C109.365 8.64926 110.496 9.9965 111.241 11.6826L120.142 31.5931L120.146 31.5911ZM102.862 21.229C103.501 21.229 104.092 21.3507 104.638 21.5962C105.184 21.8417 105.662 22.1746 106.075 22.5965C106.488 23.0185 106.814 23.5075 107.054 24.0655C107.294 24.6235 107.413 25.2282 107.413 25.8816C107.413 26.5348 107.294 27.1395 107.054 27.6975C106.814 28.2555 106.488 28.7444 106.075 29.1664C105.662 29.5884 105.184 29.9213 104.638 30.1668C104.092 30.4123 103.501 30.534 102.862 30.534C102.222 30.534 101.631 30.4123 101.085 30.1668C100.539 29.9213 100.06 29.5884 99.6475 29.1664C99.2346 28.7444 98.9091 28.2555 98.6688 27.6975C98.4286 27.1395 98.3095 26.5348 98.3095 25.8816C98.3095 25.2282 98.4286 24.6235 98.6688 24.0655C98.9091 23.5075 99.2346 23.0185 99.6475 22.5965C100.06 22.1746 100.539 21.8417 101.085 21.5962C101.631 21.3507 102.222 21.229 102.862 21.229Z" fill="#E35682"/>
<path d="M148.69 18.8028C149.732 19.2513 150.638 19.864 151.409 20.6391C152.179 21.4142 152.789 22.3253 153.234 23.3723C153.681 24.4192 153.905 25.5292 153.905 26.6979C153.905 27.8666 153.681 29.0111 153.234 30.0438C152.789 31.0786 152.179 31.9816 151.409 32.7567C150.638 33.5318 149.732 34.1445 148.69 34.593C147.649 35.0414 146.545 35.2666 145.383 35.2666H127.731C127.027 35.2666 126.419 35.015 125.905 34.5118C125.39 34.0087 125.134 33.3897 125.134 32.6552C125.134 31.9207 125.39 31.3424 125.905 30.8391C126.417 30.336 127.027 30.0844 127.731 30.0844H145.383C146.329 30.0844 147.128 29.7577 147.776 29.1043C148.426 28.451 148.751 27.6495 148.751 26.6979C148.751 25.7463 148.426 24.9427 147.776 24.2913C147.126 23.638 146.329 23.3114 145.383 23.3114H131.951C130.76 23.3114 129.65 23.0861 128.623 22.6378C127.594 22.1893 126.696 21.5766 125.925 20.8015C125.154 20.0264 124.545 19.1153 124.099 18.0683C123.653 17.0212 123.429 15.9134 123.429 14.7426C123.429 13.5719 123.653 12.464 124.099 11.417C124.545 10.37 125.154 9.45286 125.925 8.66355C126.696 7.87423 127.596 7.25538 128.623 6.80696C129.65 6.35853 130.76 6.1333 131.951 6.1333H149.602C150.305 6.1333 150.914 6.39302 151.429 6.9084C151.941 7.42581 152.2 8.03657 152.2 8.74471C152.2 9.45286 151.941 10.0575 151.429 10.5607C150.914 11.0639 150.307 11.3155 149.602 11.3155H131.951C131.004 11.3155 130.205 11.6483 129.557 12.3159C128.908 12.9834 128.583 13.791 128.583 14.7426C128.583 15.6942 128.908 16.4632 129.557 17.1288C130.207 17.7964 131.004 18.1292 131.951 18.1292H145.383C146.545 18.1292 147.649 18.3544 148.69 18.8028Z" fill="#E35682"/>
<path d="M19.2693 40.8769C18.2895 40.6134 17.331 40.2858 16.3941 39.8967L16.8207 40.0753C14.9552 39.2948 13.2013 38.2762 11.5974 37.0491L11.9577 37.3256C10.401 36.1262 9.00293 34.7396 7.79575 33.1936L8.07448 33.5508C6.88232 32.0112 5.89597 30.327 5.1305 28.5406L5.31061 28.9639C4.51081 27.0775 3.96619 25.0956 3.68744 23.0668L3.75177 23.5368C3.4816 21.5122 3.4816 19.4622 3.75177 17.4355L3.68744 17.9054C3.96619 15.9023 4.50438 13.9458 5.29346 12.0808L5.11334 12.504C5.40495 11.8256 5.72658 11.1599 6.08038 10.5113C6.52424 9.69897 6.31195 8.54848 5.4414 8.09339C4.57085 7.6383 3.47517 7.85946 3.00344 8.72712C0.0573013 14.1351 -0.76393 20.5127 0.728439 26.4822C1.42745 29.2765 2.63678 31.9899 4.28354 34.3612C5.93029 36.7323 7.89652 38.7122 10.2015 40.4028C12.6245 42.1806 15.4162 43.5012 18.3238 44.2838C19.2222 44.5263 20.3029 43.9818 20.5152 43.0483C20.7275 42.1146 20.2321 41.1344 19.2693 40.8749V40.8769Z" fill="#E35681"/>
<path d="M43.5295 10.4985C43.8831 11.1471 44.2048 11.8106 44.4943 12.489L44.3142 12.0658C45.1033 13.9308 45.6393 15.8894 45.9159 17.8927L45.8516 17.4227C46.1303 19.4876 46.1324 21.5802 45.8516 23.6451L45.9159 23.1752C45.6393 25.1507 45.1075 27.0775 44.3249 28.9169L44.505 28.4937C43.7224 30.3183 42.7039 32.0366 41.4839 33.6061L41.7626 33.2488C40.551 34.7949 39.1488 36.1878 37.5857 37.385L37.9459 37.1086C36.3698 38.3079 34.6438 39.3011 32.8148 40.0667L33.2415 39.888C32.2359 40.3048 31.2044 40.6515 30.1516 40.9258C29.2489 41.1598 28.6121 42.1997 28.9059 43.0991C29.1997 43.9987 30.1324 44.5857 31.0973 44.3347C36.8288 42.8418 41.8184 39.3118 45.2127 34.5142C48.4739 29.9037 50.0349 24.1235 49.5397 18.5158C49.2351 15.0771 48.2638 11.7511 46.6042 8.71214C46.1603 7.89767 44.9553 7.57229 44.1663 8.07842C43.3321 8.6122 43.0513 9.62659 43.5273 10.4964L43.5295 10.4985Z" fill="#E35681"/>
</svg>
