<svg width="456" height="521" viewBox="0 0 456 521" fill="none" xmlns="http://www.w3.org/2000/svg">
<rect x="267.361" y="36.3135" width="209.524" height="384.72" rx="30" transform="rotate(26.3971 267.361 36.3135)" fill="url(#paint0_linear_90_421)"/>
<g filter="url(#filter0_f_90_421)">
<path d="M260.342 81.624L344.769 123.529C359.61 130.895 365.67 148.897 358.303 163.738L226.318 429.655L115.019 374.413L260.342 81.624Z" fill="url(#paint1_linear_90_421)"/>
</g>
<rect x="171.042" y="46.6548" width="209.524" height="384.72" rx="30" transform="rotate(26.3971 171.042 46.6548)" fill="url(#paint2_linear_90_421)"/>
<circle cx="187.25" cy="157.78" r="34.7376" transform="rotate(26.3971 187.25 157.78)" stroke="#313131" stroke-width="1.55"/>
<path d="M171.925 155.471L172.682 155.647L171.925 155.471ZM176.485 146.357L177.08 146.857L176.485 146.357ZM202.846 159.547L202.089 159.37L202.846 159.547ZM198.286 168.66L197.691 168.16L198.286 168.66ZM185.569 172.755L185.386 173.51L185.569 172.755ZM176.273 168.103L176.767 167.504L176.273 168.103ZM189.202 142.263L189.019 143.018L189.202 142.263ZM198.498 146.914L198.993 146.315L198.498 146.914ZM172.682 155.647C173.436 152.41 174.942 149.402 177.08 146.857L175.89 145.858C173.595 148.589 171.979 151.819 171.168 155.294L172.682 155.647ZM202.089 159.37C201.334 162.607 199.829 165.616 197.691 168.16L198.881 169.16C201.176 166.428 202.792 163.198 203.602 159.723L202.089 159.37ZM185.752 172C182.457 171.201 179.382 169.662 176.767 167.504L175.778 168.702C178.574 171.01 181.863 172.655 185.386 173.51L185.752 172ZM189.019 143.018C192.313 143.817 195.389 145.356 198.004 147.513L198.993 146.315C196.197 144.007 192.908 142.362 189.385 141.508L189.019 143.018ZM176.767 167.504C173.243 164.596 171.667 160 172.682 155.647L171.168 155.294C170.017 160.235 171.809 165.427 175.778 168.702L176.767 167.504ZM185.386 173.51C190.387 174.723 195.617 173.044 198.881 169.16L197.691 168.16C194.816 171.582 190.193 173.076 185.752 172L185.386 173.51ZM198.004 147.513C201.528 150.422 203.104 155.018 202.089 159.37L203.602 159.723C204.754 154.783 202.962 149.59 198.993 146.315L198.004 147.513ZM189.385 141.508C184.384 140.295 179.154 141.973 175.89 145.858L177.08 146.857C179.955 143.435 184.578 141.941 189.019 143.018L189.385 141.508ZM184.252 173.432C185.362 171.214 186.16 169.622 186.933 168.494C187.691 167.385 188.361 166.822 189.172 166.561L188.695 165.082C187.429 165.49 186.511 166.359 185.65 167.616C184.804 168.853 183.952 170.559 182.862 172.737L184.252 173.432ZM198.085 167.824C195.862 166.711 194.127 165.841 192.686 165.343C191.226 164.839 189.959 164.675 188.695 165.082L189.172 166.561C189.985 166.299 190.877 166.362 192.178 166.812C193.5 167.269 195.128 168.082 197.39 169.214L198.085 167.824Z" fill="white"/>
<path d="M184.965 150.917L189.537 153.205M182.677 155.49L190.298 159.304" stroke="white" stroke-width="1.55396" stroke-linecap="round"/>
<circle cx="261.65" cy="194.261" r="34.7376" transform="rotate(26.3971 261.65 194.261)" stroke="#313131" stroke-width="1.55"/>
<path d="M276.868 187.277L258.359 178.09C256.832 177.333 255.088 178.616 255.356 180.299L257.302 192.499C257.439 193.36 257.305 194.243 256.917 195.024L254.085 200.729C253.136 202.641 253.917 204.96 255.828 205.908C257.74 206.857 260.058 206.077 261.007 204.165L263.811 198.515C264.216 197.7 264.876 197.038 265.69 196.63L276.874 191.03C278.421 190.255 278.417 188.046 276.868 187.277Z" stroke="white" stroke-width="1.57242" stroke-linecap="round" stroke-linejoin="round"/>
<circle cx="142.516" cy="247.907" r="34.7376" transform="rotate(26.3971 142.516 247.907)" stroke="#313131" stroke-width="1.55"/>
<path d="M149.181 234.035L148.417 235.574M133.271 254.588C136.145 256.441 139.218 257.966 142.432 259.135C142.264 259.42 142.071 259.691 141.857 259.945L141.478 260.393C140.291 261.797 138.423 262.422 136.639 262.012C135.846 261.83 135.107 261.463 134.482 260.942C133.077 259.768 132.445 257.903 132.845 256.108L132.973 255.535C133.046 255.211 133.145 254.894 133.271 254.588ZM135.752 238.122C138.156 235.41 141.799 234.1 145.37 234.63C147.565 234.955 149.621 235.975 151.199 237.535C153.725 240.032 154.813 243.647 154.09 247.14L153.294 250.988L152.401 254.584C152.126 255.692 151.916 256.868 151.573 257.956C151.513 258.145 151.438 258.332 151.347 258.515C150.537 260.148 148.694 260.986 146.94 260.52L146.32 260.356C140.371 258.775 134.804 256.011 129.948 252.229L129.442 251.835C128.01 250.72 127.563 248.745 128.374 247.112C128.464 246.929 128.568 246.756 128.682 246.595C129.342 245.663 130.151 244.785 130.867 243.896L133.192 241.01L135.752 238.122Z" stroke="white" stroke-width="1.57242" stroke-linecap="round"/>
<circle cx="216.739" cy="284.747" r="34.7376" transform="rotate(26.3971 216.739 284.747)" stroke="#313131" stroke-width="1.55"/>
<path d="M205.252 283.927L221.46 291.972C223.712 293.089 226.421 291.087 226.267 288.42L226.165 286.669C226.065 284.946 226.908 283.248 228.341 282.285L229.797 281.307C232.015 279.818 231.971 276.449 229.72 275.332L213.511 267.287L205.252 283.927ZM205.252 283.927L200.88 292.734" stroke="white" stroke-width="1.57242" stroke-linecap="round" stroke-linejoin="round"/>
<circle cx="97.7813" cy="338.035" r="34.7376" transform="rotate(26.3971 97.7813 338.035)" stroke="#313131" stroke-width="1.55"/>
<path d="M99.025 345.036C100.264 345.336 101.521 345.378 102.725 345.185L101.055 352.96C100.554 355.294 97.4823 355.916 95.9785 353.988L93.7239 351.097C92.988 350.153 91.8533 349.59 90.6567 349.574L86.9908 349.527C84.5457 349.495 83.1836 346.672 84.7397 344.861L89.9223 338.831C90.4965 339.906 91.2902 340.881 92.2784 341.687M99.025 345.036C96.5561 344.439 94.247 343.293 92.2784 341.687M99.025 345.036C102.444 345.863 105.996 344.73 108.193 342.112C109.78 340.222 110.89 337.985 111.436 335.578C112.192 332.245 110.947 328.731 108.221 326.508C106.252 324.903 103.943 323.757 101.474 323.16C98.0558 322.333 94.5038 323.465 92.3063 326.083C90.7193 327.974 89.6093 330.21 89.0632 332.617C88.307 335.951 89.5526 339.464 92.2784 341.687" stroke="white" stroke-width="1.57242"/>
<circle cx="172.004" cy="374.875" r="34.7376" transform="rotate(26.3971 172.004 374.875)" stroke="#313131" stroke-width="1.55"/>
<path d="M164.655 367.967C160.647 365.978 155.811 367.562 153.854 371.505C151.897 375.448 153.56 380.257 157.568 382.247C157.573 382.249 157.577 382.251 157.582 382.254L171.04 388.933C171.042 388.934 171.044 388.935 171.046 388.936C176.772 391.778 183.68 389.516 186.476 383.883C189.272 378.249 186.897 371.379 181.171 368.537C176.936 366.435 172.055 367.125 168.669 369.906M164.655 367.967C165.601 368.437 166.416 369.063 167.084 369.798C167.488 370.243 168.192 370.297 168.669 369.906M164.655 367.967C163.635 367.461 162.562 367.186 161.496 367.123C161.388 365.861 161.616 364.544 162.227 363.313C163.949 359.845 168.052 358.377 171.392 360.034C174.118 361.387 175.493 364.404 174.971 367.353C172.664 367.551 170.458 368.437 168.669 369.906" stroke="white" stroke-width="1.57242"/>
<defs>
<filter id="filter0_f_90_421" x="35.0193" y="1.62402" width="406.419" height="508.031" filterUnits="userSpaceOnUse" color-interpolation-filters="sRGB">
<feFlood flood-opacity="0" result="BackgroundImageFix"/>
<feBlend mode="normal" in="SourceGraphic" in2="BackgroundImageFix" result="shape"/>
<feGaussianBlur stdDeviation="40" result="effect1_foregroundBlur_90_421"/>
</filter>
<linearGradient id="paint0_linear_90_421" x1="372.123" y1="36.3135" x2="372.123" y2="421.033" gradientUnits="userSpaceOnUse">
<stop stop-color="#5846FB"/>
<stop offset="0.427083" stop-color="#5442F4"/>
<stop offset="1" stop-color="#2C18E6"/>
</linearGradient>
<linearGradient id="paint1_linear_90_421" x1="304.831" y1="-19.0615" x2="301.794" y2="438.392" gradientUnits="userSpaceOnUse">
<stop stop-color="#262729"/>
<stop offset="0.390625" stop-color="#262729"/>
<stop offset="0.521027" stop-color="#1E1F21"/>
<stop offset="1" stop-color="#101010"/>
</linearGradient>
<linearGradient id="paint2_linear_90_421" x1="162.756" y1="-82.7737" x2="345.646" y2="454.058" gradientUnits="userSpaceOnUse">
<stop stop-color="#262729"/>
<stop offset="0.390625" stop-color="#262729"/>
<stop offset="0.521027" stop-color="#1E1F21"/>
<stop offset="1" stop-color="#101010"/>
</linearGradient>
</defs>
</svg>
