<svg width="64" height="64" viewBox="0 0 64 64" fill="none" xmlns="http://www.w3.org/2000/svg">
<rect x="0.756352" y="0.525883" width="62.0542" height="62.0542" rx="9.99178" fill="#18203A" stroke="#606060" stroke-width="1.05177"/>
<path d="M26.6422 44.4665C26.6422 47.3384 24.3141 49.6665 21.4422 49.6665C18.5703 49.6665 16.2422 47.3384 16.2422 44.4665C16.2422 41.5946 18.5703 39.2665 21.4422 39.2665C24.3141 39.2665 26.6422 41.5946 26.6422 44.4665ZM26.6422 44.4665H41.3755C42.9845 44.4665 44.5276 43.8274 45.6653 42.6896C46.803 41.5519 47.4422 40.0089 47.4422 38.3999C47.4422 36.7909 46.803 35.2478 45.6653 34.1101C44.5276 32.9724 42.9845 32.3332 41.3755 32.3332H22.3089C20.6999 32.3332 19.1568 31.6941 18.0191 30.5564C16.8814 29.4187 16.2422 27.8756 16.2422 26.2666C16.2422 24.6576 16.8814 23.1146 18.0191 21.9768C19.1568 20.8391 20.6999 20.2 22.3089 20.2H37.0422M37.0422 20.2C37.0422 23.0718 39.3703 25.3999 42.2422 25.3999C45.1141 25.3999 47.4422 23.0718 47.4422 20.2C47.4422 17.3281 45.1141 15 42.2422 15C39.3703 15 37.0422 17.3281 37.0422 20.2Z" stroke="#56ECFF" stroke-width="3.46666" stroke-linecap="round" stroke-linejoin="round"/>
</svg>
