<svg width="479" height="444" viewBox="0 0 479 444" fill="none" xmlns="http://www.w3.org/2000/svg">
<path d="M326.742 10.0488V93.8209" stroke="white" stroke-width="0.842105" stroke-linecap="round"/>
<ellipse cx="326.742" cy="93.8211" rx="4.14815" ry="3.92682" fill="white"/>
<path d="M335.999 10.0493C335.999 14.8556 331.877 18.7908 326.742 18.7908C321.606 18.7908 317.484 14.8556 317.484 10.0493C317.484 5.24294 321.606 1.30777 326.742 1.30777C331.877 1.30777 335.999 5.24294 335.999 10.0493Z" fill="#56ECFF" stroke="white" stroke-width="0.842105"/>
<path d="M368.222 10.0488V93.8209" stroke="white" stroke-width="0.842105" stroke-linecap="round"/>
<ellipse cx="368.222" cy="93.8211" rx="4.14815" ry="3.92682" fill="white"/>
<path d="M377.48 10.0493C377.48 14.8556 373.357 18.7908 368.222 18.7908C363.087 18.7908 358.964 14.8556 358.964 10.0493C358.964 5.24294 363.087 1.30777 368.222 1.30777C373.357 1.30777 377.48 5.24294 377.48 10.0493Z" fill="#56ECFF" stroke="white" stroke-width="0.842105"/>
<path d="M409.706 10.0488V93.8209" stroke="white" stroke-width="0.842105" stroke-linecap="round"/>
<ellipse cx="409.706" cy="93.8211" rx="4.14815" ry="3.92682" fill="white"/>
<path d="M418.963 10.0493C418.963 14.8556 414.84 18.7908 409.705 18.7908C404.57 18.7908 400.447 14.8556 400.447 10.0493C400.447 5.24294 404.57 1.30777 409.705 1.30777C414.84 1.30777 418.963 5.24294 418.963 10.0493Z" fill="#56ECFF" stroke="white" stroke-width="0.842105"/>
<path d="M10.1006 389.642L98.5945 389.642" stroke="white" stroke-width="0.842105" stroke-linecap="round"/>
<ellipse cx="98.5944" cy="389.642" rx="3.92682" ry="4.14815" transform="rotate(-90 98.5944 389.642)" fill="white"/>
<path d="M10.1004 380.9C15.2355 380.9 19.3584 384.835 19.3584 389.642C19.3584 394.448 15.2355 398.383 10.1004 398.383C4.96532 398.383 0.842439 394.448 0.842439 389.642C0.842439 384.835 4.96532 380.9 10.1004 380.9Z" stroke="white" stroke-width="0.842105"/>
<path d="M10.1006 350.374L98.5945 350.374" stroke="white" stroke-width="0.842105" stroke-linecap="round"/>
<ellipse cx="98.5944" cy="350.374" rx="3.92682" ry="4.14815" transform="rotate(-90 98.5944 350.374)" fill="white"/>
<rect x="195.385" y="177.593" width="241.975" height="229.064" rx="1.68421" stroke="white" stroke-width="0.842105" stroke-linecap="round"/>
<rect x="235.91" y="213.928" width="241.975" height="229.064" rx="1.68421" stroke="white" stroke-width="0.842105" stroke-linecap="round"/>
<rect x="148.372" y="137.016" width="302.815" height="286.658" rx="1.68421" stroke="white" stroke-width="0.842105" stroke-linecap="round"/>
<path d="M160.816 10.0488V93.8209" stroke="white" stroke-width="0.842105" stroke-linecap="round"/>
<ellipse cx="160.816" cy="93.8211" rx="4.14815" ry="3.92682" fill="white"/>
<path d="M170.074 10.0493C170.074 14.8556 165.951 18.7908 160.816 18.7908C155.681 18.7908 151.558 14.8556 151.558 10.0493C151.558 5.24294 155.681 1.30777 160.816 1.30777C165.951 1.30777 170.074 5.24294 170.074 10.0493Z" fill="#56ECFF" stroke="white" stroke-width="0.842105"/>
<path d="M202.298 10.0488V93.8209" stroke="white" stroke-width="0.842105" stroke-linecap="round"/>
<ellipse cx="202.298" cy="93.8211" rx="4.14815" ry="3.92682" fill="white"/>
<path d="M211.556 10.0493C211.556 14.8556 207.433 18.7908 202.298 18.7908C197.163 18.7908 193.04 14.8556 193.04 10.0493C193.04 5.24294 197.163 1.30777 202.298 1.30777C207.433 1.30777 211.556 5.24294 211.556 10.0493Z" fill="#56ECFF" stroke="white" stroke-width="0.842105"/>
<path d="M243.78 10.0488V93.8209" stroke="white" stroke-width="0.842105" stroke-linecap="round"/>
<ellipse cx="243.78" cy="93.8211" rx="4.14815" ry="3.92682" fill="white"/>
<path d="M253.038 10.0493C253.038 14.8556 248.915 18.7908 243.78 18.7908C238.645 18.7908 234.522 14.8556 234.522 10.0493C234.522 5.24294 238.645 1.30777 243.78 1.30777C248.915 1.30777 253.038 5.24294 253.038 10.0493Z" fill="#56ECFF" stroke="white" stroke-width="0.842105"/>
<path d="M285.26 10.0488V93.8209" stroke="white" stroke-width="0.842105" stroke-linecap="round"/>
<ellipse cx="285.26" cy="93.8211" rx="4.14815" ry="3.92682" fill="white"/>
<path d="M294.518 10.0493C294.518 14.8556 290.395 18.7908 285.26 18.7908C280.125 18.7908 276.002 14.8556 276.002 10.0493C276.002 5.24294 280.125 1.30777 285.26 1.30777C290.395 1.30777 294.518 5.24294 294.518 10.0493Z" fill="#56ECFF" stroke="white" stroke-width="0.842105"/>
<path d="M10.1004 341.632C15.2355 341.632 19.3584 345.567 19.3584 350.374C19.3584 355.18 15.2355 359.115 10.1004 359.115C4.96532 359.115 0.842439 355.18 0.842439 350.374C0.842439 345.567 4.96532 341.632 10.1004 341.632Z" fill="#56ECFF" stroke="white" stroke-width="0.842105"/>
<path d="M10.1006 311.106L98.5945 311.106" stroke="white" stroke-width="0.842105" stroke-linecap="round"/>
<ellipse cx="98.5944" cy="311.105" rx="3.92682" ry="4.14815" transform="rotate(-90 98.5944 311.105)" fill="white"/>
<path d="M10.1004 302.364C15.2355 302.364 19.3584 306.299 19.3584 311.105C19.3584 315.912 15.2355 319.847 10.1004 319.847C4.96532 319.847 0.842439 315.912 0.842439 311.105C0.842439 306.299 4.96532 302.364 10.1004 302.364Z" fill="#56ECFF" stroke="white" stroke-width="0.842105"/>
<path d="M10.1006 271.837L98.5945 271.837" stroke="white" stroke-width="0.842105" stroke-linecap="round"/>
<ellipse cx="98.5944" cy="271.837" rx="3.92682" ry="4.14815" transform="rotate(-90 98.5944 271.837)" fill="white"/>
<path d="M10.1004 263.096C15.2355 263.096 19.3584 267.031 19.3584 271.837C19.3584 276.644 15.2355 280.579 10.1004 280.579C4.96532 280.579 0.842439 276.644 0.842439 271.837C0.842439 267.031 4.96532 263.096 10.1004 263.096Z" fill="#56ECFF" stroke="white" stroke-width="0.842105"/>
<path d="M10.1006 232.569L98.5945 232.569" stroke="white" stroke-width="0.842105" stroke-linecap="round"/>
<ellipse cx="98.5944" cy="232.569" rx="3.92682" ry="4.14815" transform="rotate(-90 98.5944 232.569)" fill="white"/>
<path d="M10.1004 223.828C15.2355 223.828 19.3584 227.763 19.3584 232.569C19.3584 237.375 15.2355 241.311 10.1004 241.311C4.96532 241.311 0.842439 237.375 0.842439 232.569C0.842439 227.763 4.96532 223.828 10.1004 223.828Z" fill="#56ECFF" stroke="white" stroke-width="0.842105"/>
<path d="M10.1006 193.301L98.5945 193.301" stroke="white" stroke-width="0.842105" stroke-linecap="round"/>
<ellipse cx="98.5944" cy="193.301" rx="3.92682" ry="4.14815" transform="rotate(-90 98.5944 193.301)" fill="white"/>
<path d="M10.1004 184.559C15.2355 184.559 19.3584 188.494 19.3584 193.301C19.3584 198.107 15.2355 202.042 10.1004 202.042C4.96532 202.042 0.842439 198.107 0.842439 193.301C0.842439 188.494 4.96532 184.559 10.1004 184.559Z" fill="#56ECFF" stroke="white" stroke-width="0.842105"/>
<path d="M10.1006 154.033L98.5945 154.033" stroke="white" stroke-width="0.842105" stroke-linecap="round"/>
<ellipse cx="98.5944" cy="154.033" rx="3.92682" ry="4.14815" transform="rotate(-90 98.5944 154.033)" fill="white"/>
<path d="M10.1004 145.291C15.2355 145.291 19.3584 149.227 19.3584 154.033C19.3584 158.839 15.2355 162.775 10.1004 162.775C4.96532 162.775 0.842439 158.839 0.842439 154.033C0.842439 149.227 4.96532 145.291 10.1004 145.291Z" fill="#56ECFF" stroke="white" stroke-width="0.842105"/>
</svg>
