<svg width="64" height="64" viewBox="0 0 64 64" fill="none" xmlns="http://www.w3.org/2000/svg">
<rect x="0.738281" y="0.5" width="62.106" height="62.106" rx="10.0177" fill="#18203A"/>
<rect x="0.738281" y="0.5" width="62.106" height="62.106" rx="10.0177" stroke="#606060"/>
<path d="M32.5755 40.224V47.1573M38.1222 19.2508L36.5622 18.5575M38.1222 23.0641L36.5622 23.7574M41.0689 16.3041L40.3755 14.7441M41.0689 26.0108L40.3755 27.5707M45.5755 14.7441L44.8822 16.3041M45.5755 27.5707L44.8822 26.0108M49.3889 18.5575L47.8289 19.2508M49.3889 23.7574L47.8289 23.0641M49.9089 33.2907V36.7574C49.9089 37.6768 49.5436 38.5585 48.8935 39.2087C48.2434 39.8588 47.3616 40.224 46.4422 40.224H18.7089C17.7894 40.224 16.9077 39.8588 16.2576 39.2087C15.6074 38.5585 15.2422 37.6768 15.2422 36.7574V19.4241C15.2422 18.5047 15.6074 17.6229 16.2576 16.9728C16.9077 16.3227 17.7894 15.9575 18.7089 15.9575H30.8422M25.6422 47.1573H39.5089M48.1755 21.1574C48.1755 24.0293 45.8474 26.3574 42.9755 26.3574C40.1036 26.3574 37.7755 24.0293 37.7755 21.1574C37.7755 18.2856 40.1036 15.9575 42.9755 15.9575C45.8474 15.9575 48.1755 18.2856 48.1755 21.1574Z" stroke="#56ECFF" stroke-width="3.46666" stroke-linecap="round" stroke-linejoin="round"/>
</svg>
