<svg width="64" height="64" viewBox="0 0 64 64" fill="none" xmlns="http://www.w3.org/2000/svg">
<rect x="0.734375" y="0.5" width="62.106" height="62.106" rx="10.0177" fill="#18203A"/>
<rect x="0.734375" y="0.5" width="62.106" height="62.106" rx="10.0177" stroke="#606060"/>
<path d="M19.7089 16C18.7894 16 17.9077 16.3652 17.2576 17.0154C16.6074 17.6655 16.2422 18.5472 16.2422 19.4666M43.9755 16C44.8949 16 45.7767 16.3652 46.4268 17.0154C47.077 17.6655 47.4422 18.5472 47.4422 19.4666M19.7089 47.1998C18.7894 47.1998 17.9077 46.8346 17.2576 46.1845C16.6074 45.5344 16.2422 44.6526 16.2422 43.7332M26.6422 16H28.3755M26.6422 47.1998H30.1089M35.3089 16H37.0422M16.2422 26.3999V28.1333M47.4422 26.3999V29.8666M16.2422 35.0666V36.7999M31.8422 31.5999L38.7755 48.9332L41.7222 41.4799L49.1755 38.5332L31.8422 31.5999Z" stroke="#56ECFF" stroke-width="3.46666" stroke-linecap="round" stroke-linejoin="round"/>
</svg>
