<svg width="1258" height="41" viewBox="0 0 1258 41" fill="none" xmlns="http://www.w3.org/2000/svg">
<g opacity="0.8">
<path opacity="0.8" d="M478.602 36.2579C476.982 36.2579 475.599 35.6876 474.453 34.5469C473.312 33.4011 472.742 32.0183 472.742 30.3985C472.742 28.7787 473.312 27.3985 474.453 26.2579C475.599 25.112 476.982 24.5391 478.602 24.5391C480.216 24.5391 481.594 25.112 482.734 26.2579C483.88 27.3985 484.453 28.7787 484.453 30.3985C484.453 32.0183 483.88 33.4011 482.734 34.5469C481.594 35.6876 480.216 36.2579 478.602 36.2579ZM478.602 25.2266C477.174 25.2266 475.956 25.7318 474.945 26.7422C473.935 27.7527 473.43 28.9714 473.43 30.3985C473.43 31.8256 473.935 33.0443 474.945 34.0547C475.956 35.06 477.174 35.5626 478.602 35.5626C480.029 35.5626 481.245 35.06 482.25 34.0547C483.26 33.0443 483.766 31.8256 483.766 30.3985C483.766 28.9714 483.26 27.7527 482.25 26.7422C481.245 25.7318 480.029 25.2266 478.602 25.2266ZM480.719 33.4297C480.172 33.7891 479.526 33.9688 478.781 33.9688C477.781 33.9688 476.943 33.6433 476.266 32.9922C475.589 32.3412 475.25 31.5261 475.25 30.5469C475.25 29.4115 475.596 28.5053 476.289 27.8282C476.982 27.1511 477.883 26.8126 478.992 26.8126C479.622 26.8126 480.188 26.9506 480.688 27.2266V28.3985C480.24 28.0235 479.643 27.836 478.898 27.836C478.164 27.836 477.557 28.0704 477.078 28.5391C476.604 29.0079 476.367 29.6381 476.367 30.4297C476.367 31.2006 476.609 31.8178 477.094 32.2813C477.583 32.7449 478.203 32.9766 478.953 32.9766C479.641 32.9766 480.229 32.7735 480.719 32.3672V33.4297ZM496.148 27.7344C496.148 27.3907 496.094 27.0912 495.984 26.836C495.88 26.5808 495.734 26.3699 495.547 26.2032C495.365 26.0313 495.148 25.9037 494.898 25.8204C494.648 25.737 494.378 25.6954 494.086 25.6954C493.836 25.6954 493.591 25.7292 493.352 25.7969C493.112 25.8646 492.878 25.9584 492.648 26.0782C492.424 26.198 492.206 26.3412 491.992 26.5079C491.784 26.6745 491.589 26.8594 491.406 27.0626V25.6876C491.766 25.3386 492.167 25.073 492.609 24.8907C493.057 24.7032 493.602 24.6094 494.242 24.6094C494.701 24.6094 495.125 24.6771 495.516 24.8126C495.906 24.9428 496.245 25.1355 496.531 25.3907C496.818 25.6459 497.042 25.961 497.203 26.336C497.37 26.711 497.453 27.1407 497.453 27.6251C497.453 28.0678 497.401 28.4688 497.297 28.8282C497.198 29.1876 497.044 29.5261 496.836 29.8438C496.633 30.1615 496.375 30.4662 496.062 30.7579C495.75 31.0495 495.383 31.3464 494.961 31.6485C494.435 32.0235 494 32.3438 493.656 32.6094C493.318 32.8751 493.047 33.1251 492.844 33.3594C492.646 33.5886 492.505 33.8204 492.422 34.0547C492.344 34.2839 492.305 34.5495 492.305 34.8516H497.883V36.0001H490.969V35.4454C490.969 34.9662 491.021 34.5443 491.125 34.1797C491.229 33.8152 491.401 33.4688 491.641 33.1407C491.88 32.8126 492.193 32.4844 492.578 32.1563C492.969 31.8282 493.445 31.4584 494.008 31.0469C494.414 30.7553 494.753 30.4766 495.023 30.211C495.299 29.9454 495.521 29.6797 495.688 29.4141C495.854 29.1485 495.971 28.8803 496.039 28.6094C496.112 28.3334 496.148 28.0417 496.148 27.7344ZM506.711 30.3516C506.711 31.2891 506.625 32.1199 506.453 32.8438C506.286 33.5678 506.042 34.1797 505.719 34.6797C505.401 35.1745 505.008 35.5521 504.539 35.8126C504.076 36.0678 503.547 36.1954 502.953 36.1954C502.391 36.1954 501.888 36.073 501.445 35.8282C501.008 35.5782 500.638 35.2162 500.336 34.7422C500.034 34.2683 499.805 33.6876 499.648 33.0001C499.492 32.3074 499.414 31.5157 499.414 30.6251C499.414 29.6459 499.495 28.7813 499.656 28.0313C499.823 27.2813 500.065 26.6537 500.383 26.1485C500.701 25.6381 501.094 25.2553 501.562 25.0001C502.036 24.7396 502.578 24.6094 503.188 24.6094C505.536 24.6094 506.711 26.5235 506.711 30.3516ZM505.398 30.4766C505.398 27.2891 504.641 25.6954 503.125 25.6954C501.526 25.6954 500.727 27.3178 500.727 30.5626C500.727 33.5886 501.51 35.1016 503.078 35.1016C504.625 35.1016 505.398 33.56 505.398 30.4766ZM513.398 27.7344C513.398 27.3907 513.344 27.0912 513.234 26.836C513.13 26.5808 512.984 26.3699 512.797 26.2032C512.615 26.0313 512.398 25.9037 512.148 25.8204C511.898 25.737 511.628 25.6954 511.336 25.6954C511.086 25.6954 510.841 25.7292 510.602 25.7969C510.362 25.8646 510.128 25.9584 509.898 26.0782C509.674 26.198 509.456 26.3412 509.242 26.5079C509.034 26.6745 508.839 26.8594 508.656 27.0626V25.6876C509.016 25.3386 509.417 25.073 509.859 24.8907C510.307 24.7032 510.852 24.6094 511.492 24.6094C511.951 24.6094 512.375 24.6771 512.766 24.8126C513.156 24.9428 513.495 25.1355 513.781 25.3907C514.068 25.6459 514.292 25.961 514.453 26.336C514.62 26.711 514.703 27.1407 514.703 27.6251C514.703 28.0678 514.651 28.4688 514.547 28.8282C514.448 29.1876 514.294 29.5261 514.086 29.8438C513.883 30.1615 513.625 30.4662 513.312 30.7579C513 31.0495 512.633 31.3464 512.211 31.6485C511.685 32.0235 511.25 32.3438 510.906 32.6094C510.568 32.8751 510.297 33.1251 510.094 33.3594C509.896 33.5886 509.755 33.8204 509.672 34.0547C509.594 34.2839 509.555 34.5495 509.555 34.8516H515.133V36.0001H508.219V35.4454C508.219 34.9662 508.271 34.5443 508.375 34.1797C508.479 33.8152 508.651 33.4688 508.891 33.1407C509.13 32.8126 509.443 32.4844 509.828 32.1563C510.219 31.8282 510.695 31.4584 511.258 31.0469C511.664 30.7553 512.003 30.4766 512.273 30.211C512.549 29.9454 512.771 29.6797 512.938 29.4141C513.104 29.1485 513.221 28.8803 513.289 28.6094C513.362 28.3334 513.398 28.0417 513.398 27.7344ZM522.633 24.7969V32.1954H524.07V33.3672H522.633V36.0001H521.367V33.3672H516.102V32.2579C516.591 31.7058 517.086 31.1172 517.586 30.4922C518.086 29.862 518.562 29.224 519.016 28.5782C519.474 27.9324 519.896 27.2891 520.281 26.6485C520.672 26.0027 521 25.3855 521.266 24.7969H522.633ZM517.547 32.1954H521.367V26.711C520.977 27.3933 520.607 28.0027 520.258 28.5391C519.909 29.0756 519.576 29.5626 519.258 30.0001C518.945 30.4376 518.646 30.8334 518.359 31.1876C518.073 31.5417 517.802 31.8777 517.547 32.1954ZM526.359 36.1719C526.12 36.1719 525.914 36.086 525.742 35.9141C525.576 35.7422 525.492 35.5365 525.492 35.2969C525.492 35.0574 525.576 34.8516 525.742 34.6797C525.914 34.5027 526.12 34.4141 526.359 34.4141C526.604 34.4141 526.812 34.5027 526.984 34.6797C527.156 34.8516 527.242 35.0574 527.242 35.2969C527.242 35.5365 527.156 35.7422 526.984 35.9141C526.812 36.086 526.604 36.1719 526.359 36.1719ZM542.617 36.0001H541.164L539.977 32.8594H535.227L534.109 36.0001H532.648L536.945 24.7969H538.305L542.617 36.0001ZM539.547 31.6797L537.789 26.9063C537.732 26.7501 537.674 26.5001 537.617 26.1563H537.586C537.534 26.474 537.474 26.724 537.406 26.9063L535.664 31.6797H539.547ZM550.742 36.0001H548.945L545.414 32.1563H545.383V36.0001H544.102V24.1563H545.383V31.6641H545.414L548.773 28.0001H550.453L546.742 31.8594L550.742 36.0001ZM551.57 35.711V34.336C552.268 34.8516 553.036 35.1094 553.875 35.1094C555 35.1094 555.562 34.7344 555.562 33.9844C555.562 33.7709 555.513 33.5912 555.414 33.4454C555.32 33.2943 555.19 33.1615 555.023 33.0469C554.862 32.9324 554.669 32.8308 554.445 32.7422C554.227 32.6485 553.99 32.5521 553.734 32.4532C553.38 32.3126 553.068 32.1719 552.797 32.0313C552.531 31.8855 552.307 31.724 552.125 31.5469C551.948 31.3646 551.812 31.1589 551.719 30.9297C551.63 30.7006 551.586 30.4324 551.586 30.1251C551.586 29.7501 551.672 29.4193 551.844 29.1329C552.016 28.8412 552.245 28.599 552.531 28.4063C552.818 28.2084 553.143 28.06 553.508 27.961C553.878 27.862 554.258 27.8126 554.648 27.8126C555.341 27.8126 555.961 27.9324 556.508 28.1719V29.4688C555.919 29.0834 555.242 28.8907 554.477 28.8907C554.237 28.8907 554.021 28.9193 553.828 28.9766C553.635 29.0287 553.469 29.1042 553.328 29.2032C553.193 29.3021 553.086 29.4219 553.008 29.5626C552.935 29.698 552.898 29.849 552.898 30.0157C552.898 30.224 552.935 30.3985 553.008 30.5391C553.086 30.6797 553.198 30.8047 553.344 30.9141C553.49 31.0235 553.667 31.1225 553.875 31.211C554.083 31.2995 554.32 31.3959 554.586 31.5001C554.94 31.6355 555.258 31.7761 555.539 31.9219C555.82 32.0626 556.06 32.224 556.258 32.4063C556.456 32.5834 556.607 32.7891 556.711 33.0235C556.82 33.2579 556.875 33.5365 556.875 33.8594C556.875 34.2553 556.786 34.599 556.609 34.8907C556.438 35.1824 556.206 35.4245 555.914 35.6172C555.622 35.81 555.286 35.9532 554.906 36.0469C554.526 36.1407 554.128 36.1876 553.711 36.1876C552.888 36.1876 552.174 36.0287 551.57 35.711ZM565.492 36.0001H564.211V31.3907C564.211 29.724 563.591 28.8907 562.352 28.8907C561.727 28.8907 561.201 29.1329 560.773 29.6172C560.346 30.0964 560.133 30.7136 560.133 31.4688V36.0001H558.852V24.1563H560.133V29.3282H560.164C560.779 28.3178 561.654 27.8126 562.789 27.8126C564.591 27.8126 565.492 28.8985 565.492 31.0704V36.0001ZM579.102 25.9844H575.867V36.0001H574.555V25.9844H571.328V24.7969H579.102V25.9844ZM585.562 32.3204H579.914C579.935 33.211 580.174 33.8985 580.633 34.3829C581.091 34.8672 581.721 35.1094 582.523 35.1094C583.424 35.1094 584.253 34.8126 585.008 34.2188V35.4219C584.305 35.9324 583.375 36.1876 582.219 36.1876C581.089 36.1876 580.201 35.8256 579.555 35.1016C578.909 34.3725 578.586 33.349 578.586 32.0313C578.586 30.7865 578.938 29.7735 579.641 28.9922C580.349 28.2058 581.227 27.8126 582.273 27.8126C583.32 27.8126 584.13 28.1511 584.703 28.8282C585.276 29.5053 585.562 30.4454 585.562 31.6485V32.3204ZM584.25 31.2344C584.245 30.4949 584.065 29.9193 583.711 29.5079C583.362 29.0964 582.875 28.8907 582.25 28.8907C581.646 28.8907 581.133 29.1068 580.711 29.5391C580.289 29.9714 580.029 30.5365 579.93 31.2344H584.25ZM592.961 35.6329C592.346 36.0027 591.617 36.1876 590.773 36.1876C589.633 36.1876 588.711 35.8178 588.008 35.0782C587.31 34.3334 586.961 33.3699 586.961 32.1876C586.961 30.8699 587.339 29.8126 588.094 29.0157C588.849 28.2136 589.857 27.8126 591.117 27.8126C591.82 27.8126 592.44 27.9428 592.977 28.2032V29.5157C592.383 29.099 591.747 28.8907 591.07 28.8907C590.253 28.8907 589.581 29.185 589.055 29.7735C588.534 30.3568 588.273 31.1251 588.273 32.0782C588.273 33.0157 588.518 33.7553 589.008 34.2969C589.503 34.8386 590.164 35.1094 590.992 35.1094C591.69 35.1094 592.346 34.8777 592.961 34.4141V35.6329ZM601.539 36.0001H600.258V31.3907C600.258 29.724 599.638 28.8907 598.398 28.8907C597.773 28.8907 597.247 29.1329 596.82 29.6172C596.393 30.0964 596.18 30.7136 596.18 31.4688V36.0001H594.898V24.1563H596.18V29.3282H596.211C596.826 28.3178 597.701 27.8126 598.836 27.8126C600.638 27.8126 601.539 28.8985 601.539 31.0704V36.0001ZM610.602 36.0001H609.32V31.4376C609.32 29.7396 608.701 28.8907 607.461 28.8907C606.82 28.8907 606.289 29.1329 605.867 29.6172C605.451 30.0964 605.242 30.7032 605.242 31.4376V36.0001H603.961V28.0001H605.242V29.3282H605.273C605.878 28.3178 606.753 27.8126 607.898 27.8126C608.773 27.8126 609.443 28.0964 609.906 28.6641C610.37 29.2266 610.602 30.0417 610.602 31.1094V36.0001ZM616.367 36.1876C615.185 36.1876 614.24 35.8152 613.531 35.0704C612.828 34.3204 612.477 33.3282 612.477 32.0938C612.477 30.7501 612.844 29.7006 613.578 28.9454C614.312 28.1902 615.305 27.8126 616.555 27.8126C617.747 27.8126 618.677 28.1797 619.344 28.9141C620.016 29.6485 620.352 30.6667 620.352 31.9688C620.352 33.2449 619.99 34.2683 619.266 35.0391C618.547 35.8047 617.581 36.1876 616.367 36.1876ZM616.461 28.8907C615.638 28.8907 614.987 29.1719 614.508 29.7344C614.029 30.2917 613.789 31.0626 613.789 32.0469C613.789 32.9949 614.031 33.7422 614.516 34.2891C615 34.836 615.648 35.1094 616.461 35.1094C617.289 35.1094 617.924 34.8412 618.367 34.3047C618.815 33.7683 619.039 33.0053 619.039 32.0157C619.039 31.0157 618.815 30.2449 618.367 29.7032C617.924 29.1615 617.289 28.8907 616.461 28.8907ZM623.68 36.0001H622.398V24.1563H623.68V36.0001ZM629.617 36.1876C628.435 36.1876 627.49 35.8152 626.781 35.0704C626.078 34.3204 625.727 33.3282 625.727 32.0938C625.727 30.7501 626.094 29.7006 626.828 28.9454C627.562 28.1902 628.555 27.8126 629.805 27.8126C630.997 27.8126 631.927 28.1797 632.594 28.9141C633.266 29.6485 633.602 30.6667 633.602 31.9688C633.602 33.2449 633.24 34.2683 632.516 35.0391C631.797 35.8047 630.831 36.1876 629.617 36.1876ZM629.711 28.8907C628.888 28.8907 628.237 29.1719 627.758 29.7344C627.279 30.2917 627.039 31.0626 627.039 32.0469C627.039 32.9949 627.281 33.7422 627.766 34.2891C628.25 34.836 628.898 35.1094 629.711 35.1094C630.539 35.1094 631.174 34.8412 631.617 34.3047C632.065 33.7683 632.289 33.0053 632.289 32.0157C632.289 31.0157 632.065 30.2449 631.617 29.7032C631.174 29.1615 630.539 28.8907 629.711 28.8907ZM642.477 35.3594C642.477 38.2969 641.07 39.7657 638.258 39.7657C637.268 39.7657 636.404 39.5782 635.664 39.2032V37.9219C636.565 38.4219 637.424 38.6719 638.242 38.6719C640.211 38.6719 641.195 37.6251 641.195 35.5313V34.6563H641.164C640.555 35.6771 639.638 36.1876 638.414 36.1876C637.419 36.1876 636.617 35.8334 636.008 35.1251C635.404 34.4115 635.102 33.4558 635.102 32.2579C635.102 30.8985 635.427 29.8178 636.078 29.0157C636.734 28.2136 637.63 27.8126 638.766 27.8126C639.844 27.8126 640.643 28.2449 641.164 29.1094H641.195V28.0001H642.477V35.3594ZM641.195 32.3829V31.2032C641.195 30.5678 640.979 30.0235 640.547 29.5704C640.12 29.1172 639.586 28.8907 638.945 28.8907C638.154 28.8907 637.534 29.1797 637.086 29.7579C636.638 30.3308 636.414 31.1355 636.414 32.1719C636.414 33.0626 636.628 33.7761 637.055 34.3126C637.487 34.8438 638.057 35.1094 638.766 35.1094C639.484 35.1094 640.068 34.8542 640.516 34.3438C640.969 33.8334 641.195 33.1797 641.195 32.3829ZM651.438 28.0001L647.758 37.2813C647.102 38.9376 646.18 39.7657 644.992 39.7657C644.659 39.7657 644.38 39.7318 644.156 39.6641V38.5157C644.432 38.6094 644.685 38.6563 644.914 38.6563C645.56 38.6563 646.044 38.2709 646.367 37.5001L647.008 35.9844L643.883 28.0001H645.305L647.469 34.1563C647.495 34.2344 647.549 34.4376 647.633 34.7657H647.68C647.706 34.6407 647.758 34.4428 647.836 34.1719L650.109 28.0001H651.438ZM666.055 36.0001H664.602L663.414 32.8594H658.664L657.547 36.0001H656.086L660.383 24.7969H661.742L666.055 36.0001ZM662.984 31.6797L661.227 26.9063C661.169 26.7501 661.112 26.5001 661.055 26.1563H661.023C660.971 26.474 660.911 26.724 660.844 26.9063L659.102 31.6797H662.984ZM668.82 36.0001H667.539V24.1563H668.82V36.0001ZM672.695 36.0001H671.414V24.1563H672.695V36.0001ZM683.852 29.2969C683.628 29.1251 683.305 29.0391 682.883 29.0391C682.336 29.0391 681.878 29.2969 681.508 29.8126C681.143 30.3282 680.961 31.0313 680.961 31.9219V36.0001H679.68V28.0001H680.961V29.6485H680.992C681.174 29.086 681.453 28.6485 681.828 28.336C682.203 28.0183 682.622 27.8594 683.086 27.8594C683.419 27.8594 683.674 27.8959 683.852 27.9688V29.2969ZM685.898 25.9688C685.669 25.9688 685.474 25.8907 685.312 25.7344C685.151 25.5782 685.07 25.3803 685.07 25.1407C685.07 24.9011 685.151 24.7032 685.312 24.5469C685.474 24.3855 685.669 24.3047 685.898 24.3047C686.133 24.3047 686.331 24.3855 686.492 24.5469C686.659 24.7032 686.742 24.9011 686.742 25.1407C686.742 25.3699 686.659 25.5652 686.492 25.7266C686.331 25.8881 686.133 25.9688 685.898 25.9688ZM686.523 36.0001H685.242V28.0001H686.523V36.0001ZM695.945 35.3594C695.945 38.2969 694.539 39.7657 691.727 39.7657C690.737 39.7657 689.872 39.5782 689.133 39.2032V37.9219C690.034 38.4219 690.893 38.6719 691.711 38.6719C693.68 38.6719 694.664 37.6251 694.664 35.5313V34.6563H694.633C694.023 35.6771 693.107 36.1876 691.883 36.1876C690.888 36.1876 690.086 35.8334 689.477 35.1251C688.872 34.4115 688.57 33.4558 688.57 32.2579C688.57 30.8985 688.896 29.8178 689.547 29.0157C690.203 28.2136 691.099 27.8126 692.234 27.8126C693.312 27.8126 694.112 28.2449 694.633 29.1094H694.664V28.0001H695.945V35.3594ZM694.664 32.3829V31.2032C694.664 30.5678 694.448 30.0235 694.016 29.5704C693.589 29.1172 693.055 28.8907 692.414 28.8907C691.622 28.8907 691.003 29.1797 690.555 29.7579C690.107 30.3308 689.883 31.1355 689.883 32.1719C689.883 33.0626 690.096 33.7761 690.523 34.3126C690.956 34.8438 691.526 35.1094 692.234 35.1094C692.953 35.1094 693.536 34.8542 693.984 34.3438C694.438 33.8334 694.664 33.1797 694.664 32.3829ZM705.18 36.0001H703.898V31.3907C703.898 29.724 703.279 28.8907 702.039 28.8907C701.414 28.8907 700.888 29.1329 700.461 29.6172C700.034 30.0964 699.82 30.7136 699.82 31.4688V36.0001H698.539V24.1563H699.82V29.3282H699.852C700.466 28.3178 701.341 27.8126 702.477 27.8126C704.279 27.8126 705.18 28.8985 705.18 31.0704V36.0001ZM711.312 35.9219C711.01 36.0886 710.612 36.1719 710.117 36.1719C708.716 36.1719 708.016 35.3907 708.016 33.8282V29.0938H706.641V28.0001H708.016V26.0469L709.297 25.6329V28.0001H711.312V29.0938H709.297V33.6016C709.297 34.1381 709.388 34.5209 709.57 34.7501C709.753 34.9792 710.055 35.0938 710.477 35.0938C710.799 35.0938 711.078 35.0053 711.312 34.8282V35.9219ZM712.539 35.711V34.336C713.237 34.8516 714.005 35.1094 714.844 35.1094C715.969 35.1094 716.531 34.7344 716.531 33.9844C716.531 33.7709 716.482 33.5912 716.383 33.4454C716.289 33.2943 716.159 33.1615 715.992 33.0469C715.831 32.9324 715.638 32.8308 715.414 32.7422C715.195 32.6485 714.958 32.5521 714.703 32.4532C714.349 32.3126 714.036 32.1719 713.766 32.0313C713.5 31.8855 713.276 31.724 713.094 31.5469C712.917 31.3646 712.781 31.1589 712.688 30.9297C712.599 30.7006 712.555 30.4324 712.555 30.1251C712.555 29.7501 712.641 29.4193 712.812 29.1329C712.984 28.8412 713.214 28.599 713.5 28.4063C713.786 28.2084 714.112 28.06 714.477 27.961C714.846 27.862 715.227 27.8126 715.617 27.8126C716.31 27.8126 716.93 27.9324 717.477 28.1719V29.4688C716.888 29.0834 716.211 28.8907 715.445 28.8907C715.206 28.8907 714.99 28.9193 714.797 28.9766C714.604 29.0287 714.438 29.1042 714.297 29.2032C714.161 29.3021 714.055 29.4219 713.977 29.5626C713.904 29.698 713.867 29.849 713.867 30.0157C713.867 30.224 713.904 30.3985 713.977 30.5391C714.055 30.6797 714.167 30.8047 714.312 30.9141C714.458 31.0235 714.635 31.1225 714.844 31.211C715.052 31.2995 715.289 31.3959 715.555 31.5001C715.909 31.6355 716.227 31.7761 716.508 31.9219C716.789 32.0626 717.029 32.224 717.227 32.4063C717.424 32.5834 717.576 32.7891 717.68 33.0235C717.789 33.2579 717.844 33.5365 717.844 33.8594C717.844 34.2553 717.755 34.599 717.578 34.8907C717.406 35.1824 717.174 35.4245 716.883 35.6172C716.591 35.81 716.255 35.9532 715.875 36.0469C715.495 36.1407 715.096 36.1876 714.68 36.1876C713.857 36.1876 713.143 36.0287 712.539 35.711ZM728.383 29.2969C728.159 29.1251 727.836 29.0391 727.414 29.0391C726.867 29.0391 726.409 29.2969 726.039 29.8126C725.674 30.3282 725.492 31.0313 725.492 31.9219V36.0001H724.211V28.0001H725.492V29.6485H725.523C725.706 29.086 725.984 28.6485 726.359 28.336C726.734 28.0183 727.154 27.8594 727.617 27.8594C727.951 27.8594 728.206 27.8959 728.383 27.9688V29.2969ZM736.203 32.3204H730.555C730.576 33.211 730.815 33.8985 731.273 34.3829C731.732 34.8672 732.362 35.1094 733.164 35.1094C734.065 35.1094 734.893 34.8126 735.648 34.2188V35.4219C734.945 35.9324 734.016 36.1876 732.859 36.1876C731.729 36.1876 730.841 35.8256 730.195 35.1016C729.549 34.3725 729.227 33.349 729.227 32.0313C729.227 30.7865 729.578 29.7735 730.281 28.9922C730.99 28.2058 731.867 27.8126 732.914 27.8126C733.961 27.8126 734.771 28.1511 735.344 28.8282C735.917 29.5053 736.203 30.4454 736.203 31.6485V32.3204ZM734.891 31.2344C734.885 30.4949 734.706 29.9193 734.352 29.5079C734.003 29.0964 733.516 28.8907 732.891 28.8907C732.286 28.8907 731.773 29.1068 731.352 29.5391C730.93 29.9714 730.669 30.5365 730.57 31.2344H734.891ZM737.664 35.711V34.336C738.362 34.8516 739.13 35.1094 739.969 35.1094C741.094 35.1094 741.656 34.7344 741.656 33.9844C741.656 33.7709 741.607 33.5912 741.508 33.4454C741.414 33.2943 741.284 33.1615 741.117 33.0469C740.956 32.9324 740.763 32.8308 740.539 32.7422C740.32 32.6485 740.083 32.5521 739.828 32.4532C739.474 32.3126 739.161 32.1719 738.891 32.0313C738.625 31.8855 738.401 31.724 738.219 31.5469C738.042 31.3646 737.906 31.1589 737.812 30.9297C737.724 30.7006 737.68 30.4324 737.68 30.1251C737.68 29.7501 737.766 29.4193 737.938 29.1329C738.109 28.8412 738.339 28.599 738.625 28.4063C738.911 28.2084 739.237 28.06 739.602 27.961C739.971 27.862 740.352 27.8126 740.742 27.8126C741.435 27.8126 742.055 27.9324 742.602 28.1719V29.4688C742.013 29.0834 741.336 28.8907 740.57 28.8907C740.331 28.8907 740.115 28.9193 739.922 28.9766C739.729 29.0287 739.562 29.1042 739.422 29.2032C739.286 29.3021 739.18 29.4219 739.102 29.5626C739.029 29.698 738.992 29.849 738.992 30.0157C738.992 30.224 739.029 30.3985 739.102 30.5391C739.18 30.6797 739.292 30.8047 739.438 30.9141C739.583 31.0235 739.76 31.1225 739.969 31.211C740.177 31.2995 740.414 31.3959 740.68 31.5001C741.034 31.6355 741.352 31.7761 741.633 31.9219C741.914 32.0626 742.154 32.224 742.352 32.4063C742.549 32.5834 742.701 32.7891 742.805 33.0235C742.914 33.2579 742.969 33.5365 742.969 33.8594C742.969 34.2553 742.88 34.599 742.703 34.8907C742.531 35.1824 742.299 35.4245 742.008 35.6172C741.716 35.81 741.38 35.9532 741 36.0469C740.62 36.1407 740.221 36.1876 739.805 36.1876C738.982 36.1876 738.268 36.0287 737.664 35.711ZM751.375 32.3204H745.727C745.747 33.211 745.987 33.8985 746.445 34.3829C746.904 34.8672 747.534 35.1094 748.336 35.1094C749.237 35.1094 750.065 34.8126 750.82 34.2188V35.4219C750.117 35.9324 749.188 36.1876 748.031 36.1876C746.901 36.1876 746.013 35.8256 745.367 35.1016C744.721 34.3725 744.398 33.349 744.398 32.0313C744.398 30.7865 744.75 29.7735 745.453 28.9922C746.161 28.2058 747.039 27.8126 748.086 27.8126C749.133 27.8126 749.943 28.1511 750.516 28.8282C751.089 29.5053 751.375 30.4454 751.375 31.6485V32.3204ZM750.062 31.2344C750.057 30.4949 749.878 29.9193 749.523 29.5079C749.174 29.0964 748.688 28.8907 748.062 28.8907C747.458 28.8907 746.945 29.1068 746.523 29.5391C746.102 29.9714 745.841 30.5365 745.742 31.2344H750.062ZM757.492 29.2969C757.268 29.1251 756.945 29.0391 756.523 29.0391C755.977 29.0391 755.518 29.2969 755.148 29.8126C754.784 30.3282 754.602 31.0313 754.602 31.9219V36.0001H753.32V28.0001H754.602V29.6485H754.633C754.815 29.086 755.094 28.6485 755.469 28.336C755.844 28.0183 756.263 27.8594 756.727 27.8594C757.06 27.8594 757.315 27.8959 757.492 27.9688V29.2969ZM765.172 28.0001L761.984 36.0001H760.727L757.695 28.0001H759.102L761.133 33.8126C761.284 34.2396 761.378 34.612 761.414 34.9297H761.445C761.497 34.5287 761.581 34.1667 761.695 33.8438L763.82 28.0001H765.172ZM772.984 32.3204H767.336C767.357 33.211 767.596 33.8985 768.055 34.3829C768.513 34.8672 769.143 35.1094 769.945 35.1094C770.846 35.1094 771.674 34.8126 772.43 34.2188V35.4219C771.727 35.9324 770.797 36.1876 769.641 36.1876C768.51 36.1876 767.622 35.8256 766.977 35.1016C766.331 34.3725 766.008 33.349 766.008 32.0313C766.008 30.7865 766.359 29.7735 767.062 28.9922C767.771 28.2058 768.648 27.8126 769.695 27.8126C770.742 27.8126 771.552 28.1511 772.125 28.8282C772.698 29.5053 772.984 30.4454 772.984 31.6485V32.3204ZM771.672 31.2344C771.667 30.4949 771.487 29.9193 771.133 29.5079C770.784 29.0964 770.297 28.8907 769.672 28.8907C769.068 28.8907 768.555 29.1068 768.133 29.5391C767.711 29.9714 767.451 30.5365 767.352 31.2344H771.672ZM781.758 36.0001H780.477V34.6407H780.445C779.852 35.6719 778.935 36.1876 777.695 36.1876C776.69 36.1876 775.885 35.8308 775.281 35.1172C774.682 34.3985 774.383 33.4219 774.383 32.1876C774.383 30.8646 774.716 29.8047 775.383 29.0079C776.049 28.211 776.938 27.8126 778.047 27.8126C779.146 27.8126 779.945 28.2449 780.445 29.1094H780.477V24.1563H781.758V36.0001ZM780.477 32.3829V31.2032C780.477 30.5574 780.263 30.0105 779.836 29.5626C779.409 29.1146 778.867 28.8907 778.211 28.8907C777.43 28.8907 776.815 29.1771 776.367 29.7501C775.919 30.323 775.695 31.1146 775.695 32.1251C775.695 33.0469 775.909 33.7761 776.336 34.3126C776.768 34.8438 777.346 35.1094 778.07 35.1094C778.784 35.1094 779.362 34.8516 779.805 34.336C780.253 33.8204 780.477 33.1693 780.477 32.3829ZM784.797 36.1719C784.557 36.1719 784.352 36.086 784.18 35.9141C784.013 35.7422 783.93 35.5365 783.93 35.2969C783.93 35.0574 784.013 34.8516 784.18 34.6797C784.352 34.5027 784.557 34.4141 784.797 34.4141C785.042 34.4141 785.25 34.5027 785.422 34.6797C785.594 34.8516 785.68 35.0574 785.68 35.2969C785.68 35.5365 785.594 35.7422 785.422 35.9141C785.25 36.086 785.042 36.1719 784.797 36.1719Z" fill="white"/>
</g>
<line y1="0.75" x2="1258" y2="0.75" stroke="white" stroke-width="0.5"/>
</svg>
